<svg xmlns="http://www.w3.org/2000/svg" fill-rule="evenodd" stroke-linejoin="round" stroke-miterlimit="2" clip-rule="evenodd" viewBox="0 0 407 68">
  <path fill="#D0B287" d="M215.84 45.7l-7.67-7.4c-.1-.09-2.8-2.57-2.8-5.51 0-3.6 2.2-5.76 5.87-5.76 2.15 0 4.17 1.7 5.14 2.66.98-.96 3-2.66 5.14-2.66 3.68 0 5.88 2.15 5.88 5.76 0 2.95-2.7 5.42-2.81 5.53l-7.67 7.37a.76.76 0 01-1.07 0z"/>
  <path fill="#B3B59A" d="M339.35 63.33c-1.07-.87-1.61-1.75-1.61-2.75a3 3 0 01.8-2.09c.54-.6 1.28-.87 2.16-.87.74 0 1.55.33 2.42.94 3.16 2.49 6.38 3.7 9.68 3.7 7.46 0 11.23-3.9 11.23-11.77v-4.1h-.13a11.25 11.25 0 01-4.78 4.03c-2 1-4.21 1.5-6.45 1.48-4.77 0-8.67-1.54-11.63-4.7-2.96-3.16-4.44-7.06-4.44-11.7 0-4.71 1.48-8.68 4.44-11.84 2.96-3.16 6.8-4.77 11.56-4.77 2.36 0 4.57.54 6.66 1.54 2.08 1.02 3.7 2.5 4.84 4.44h.14V22.6c0-.88.2-1.62.6-2.16.4-.53.8-.87 1.21-1 .8-.27 1.68-.27 2.49 0 .4.13.8.47 1.2 1 .41.54.61 1.28.61 2.16v27.43c0 2.42-.26 4.64-.87 6.72-.6 2.02-1.62 3.9-2.9 5.58a13.85 13.85 0 01-5.5 4.04 22.54 22.54 0 01-8.34 1.41c-5.25 0-9.68-1.48-13.38-4.44zM74.5 44.44c1.01-.68 1.89-1 2.62-1 .9-.04 1.78.3 2.43.93.58.61.9 1.44.87 2.29 0 1.34-.74 2.55-2.15 3.56-2.22 1.54-5.11 2.36-8.6 2.36-4.98 0-9.08-1.55-12.31-4.64-3.3-3.03-4.91-7.2-4.91-12.44 0-5.11 1.68-9.21 4.98-12.37 3.29-3.16 7.39-4.71 12.3-4.71 3.43 0 6.25.74 8.47 2.29 1.55 1 2.29 2.21 2.29 3.49 0 .94-.34 1.75-.94 2.42a3.31 3.31 0 01-2.56 1.08c-.8 0-1.68-.34-2.69-1.08a7.17 7.17 0 00-4.57-1.48c-2.76 0-4.98 1.01-6.52 3.1a11.9 11.9 0 00-2.36 7.26c0 2.75.81 5.17 2.36 7.19 1.54 2.09 3.7 3.1 6.52 3.1 1.81 0 3.43-.48 4.77-1.35zm151.98-21.29c2.9-2.84 6.58-4.26 11.03-4.26a13.9 13.9 0 0111.36 5.65h.14V3.77c0-1.3.33-2.21 1-2.73.61-.49 1.37-.76 2.16-.77.76 0 1.47.26 2.15.77.67.52 1 1.42 1 2.72v45.05c0 .9-.2 1.62-.6 2.16-.4.53-.8.87-1.21 1-.8.27-1.68.27-2.49 0-.4-.13-.8-.47-1.2-1a3.5 3.5 0 01-.62-2.16V46.6h-.13a11.67 11.67 0 01-4.87 4.38 14.76 14.76 0 01-6.62 1.54c-4.8 0-8.68-1.61-11.63-4.84-.64-.69-1.2-1.42-1.72-2.2l3.76-3.62.09-.09c.05-.05.43-.44.95-1.07a12.04 12.04 0 001.86 3.12c1.86 2.26 4.44 3.39 7.76 3.39a9.9 9.9 0 007.73-3.4 11.77 11.77 0 003.03-8.1c0-3.14-1.01-5.85-3.03-8.13a9.86 9.86 0 00-7.73-3.43c-3.23 0-5.79 1.06-7.66 3.2a9.71 9.71 0 00-4.5-4.19zm51-4.26c4.05.02 7.38 1.16 10.11 3.43 2.7 2.36 4.31 5.65 4.92 9.95.06.6.13 1.34.13 2.09 0 2.15-1.15 3.22-3.36 3.22h-21.92a9.18 9.18 0 003.16 6.86 10.22 10.22 0 007.19 2.82c3.03 0 5.72-1.14 8.2-3.43.75-.67 1.49-1 2.23-1 .73 0 1.4.2 1.95.67.5.52.76 1.22.73 1.95 0 .8-.33 1.54-1 2.28-3.1 3.17-7.13 4.78-12.11 4.78-4.9 0-8.94-1.55-12.03-4.64-3.16-3.1-4.78-7.13-4.78-12.1 0-4.91 1.55-9.01 4.71-12.17 3.16-3.1 7.06-4.7 11.77-4.7h.1zM166.82 37.6h-21.92a9.19 9.19 0 003.16 6.85 10.22 10.22 0 007.2 2.82c3.02 0 5.71-1.14 8.2-3.43.74-.67 1.48-1 2.22-1 .74 0 1.4.2 1.95.67.5.52.76 1.22.74 1.95 0 .8-.34 1.54-1.01 2.28-3.1 3.16-7.13 4.78-12.1 4.78-4.91 0-8.94-1.55-12.04-4.64-3.16-3.1-4.77-7.13-4.77-12.1 0-4.91 1.54-9.01 4.7-12.17 3.16-3.1 7.06-4.7 11.77-4.7 4.1 0 7.46 1.14 10.22 3.42 2.69 2.36 4.3 5.65 4.9 9.95.08.6.14 1.34.14 2.09 0 2.15-1.14 3.22-3.36 3.22zm147.25-11.3a8.7 8.7 0 00-6.12-2.42c-1.61 0-3.03.33-4.17 1a3.53 3.53 0 00-1.75 3.16c0 1.28.54 2.22 1.68 2.9 1.15.67 2.96 1.27 5.58 1.88 3.36.74 5.99 1.88 7.87 3.29 1.88 1.41 2.82 3.5 2.82 6.12 0 3.5-1.21 6.12-3.63 7.73-2.49 1.75-5.51 2.56-9.08 2.56-4.23 0-7.73-1.21-10.48-3.57-.88-.8-1.35-1.68-1.35-2.55 0-.8.27-1.48.8-2.02.5-.54 1.22-.84 1.96-.8.74 0 1.54.33 2.35 1 2.16 1.88 4.44 2.83 6.86 2.83 1.81 0 3.3-.4 4.5-1.14 1.21-.74 1.82-1.89 1.82-3.5a3.4 3.4 0 00-1.88-3.16c-1.28-.74-3.43-1.41-6.46-2.16a33.1 33.1 0 01-3.29-1c-1-.39-1.94-.88-2.83-1.48a6.18 6.18 0 01-2.35-2.56 8.39 8.39 0 01-.8-3.76c0-3.23 1.2-5.65 3.56-7.33 2.28-1.61 5.18-2.42 8.47-2.42 3.76 0 6.86 1 9.21 3.03 1 .8 1.48 1.68 1.48 2.55 0 .72-.26 1.42-.74 1.95-.53.54-1.26.83-2.02.8-.67 0-1.34-.33-2.01-.93zM204.92 41.95l-.15-.14 2.75 2.66c-.62 1.14-1.4 2.2-2.3 3.2-2.96 3.22-6.84 4.84-11.63 4.84-2.29 0-4.47-.52-6.56-1.55a12.15 12.15 0 01-4.94-4.37h-.13v2.22c0 .9-.2 1.61-.6 2.15-.41.54-.82.88-1.22 1.01-.8.27-1.67.27-2.48 0-.4-.13-.81-.47-1.22-1-.4-.55-.6-1.27-.6-2.16V3.77c0-1.3.33-2.21 1-2.73.62-.49 1.38-.76 2.16-.77.76 0 1.48.26 2.15.77.67.52 1 1.42 1 2.72v20.78h.21c1.23-1.71 2.84-3.1 4.71-4.07a13.9 13.9 0 016.65-1.58c4.66 0 8.49 1.6 11.47 4.81l.02.03a9.66 9.66 0 00-4.03 4.93c-.27-.4-.56-.8-.87-1.16-1.88-2.24-4.48-3.37-7.8-3.37a9.85 9.85 0 00-7.73 3.43c-2.02 2.3-3.02 5-3.02 8.14 0 3.14 1 5.84 3.02 8.1a9.88 9.88 0 007.73 3.4c3.32 0 5.92-1.12 7.8-3.37a12.02 12.02 0 002.38-4.62l2.23 2.74.05.05-.04-.04zM15.6 18.42c2.7.01 5.08.42 7 1.14 1.95.8 3.43 1.89 4.44 3.23.96 1.31 1.7 2.76 2.22 4.3.4 1.55.6 3.16.6 4.91v16c0 1.55-.4 2.7-1.2 3.3-.74.58-1.63.91-2.56.94a3.95 3.95 0 01-1.55-.27 3.6 3.6 0 01-1.48-1.28 4.54 4.54 0 01-.74-2.69v-.47h-.2a9 9 0 01-3.9 3.5c-1.82.94-3.9 1.4-6.12 1.4-3.09 0-5.91-.8-8.33-2.48C1.2 48.34 0 45.85 0 42.42a9.08 9.08 0 014.84-8 21.47 21.47 0 015.24-1.88c1.95-.44 3.93-.73 5.92-.87 1.82-.14 3.9-.2 6.19-.2v-.81c0-1.89-.67-3.36-2.09-4.37a8.84 8.84 0 00-5.3-1.55c-2.1 0-4.38.8-7 2.42a4 4 0 01-2.15.67 2.9 2.9 0 01-2.16-.94 2.85 2.85 0 01-.87-2.15c0-1.21.6-2.22 1.89-3.1a18.94 18.94 0 0110.95-3.22h.13zm21.59 7.4h-3.1c-1.34 0-2.28-.34-2.82-1.08-.5-.6-.8-1.36-.8-2.15 0-.47.06-.88.2-1.34.24-.54.64-.98 1.14-1.28a3.99 3.99 0 012.28-.6h3.1v-4.78c0-4.3 1-7.8 2.96-10.56C42.09 1.34 45.18 0 49.55 0c3.43 0 5.11 1.21 5.11 3.56 0 .94-.34 1.75-.94 2.36a4.1 4.1 0 01-2.82.93c-2.09 0-3.5.61-4.38 1.82-.87 1.21-1.27 3.03-1.27 5.45v5.24h4.43c1.35 0 2.3.34 2.83 1 .8 1.01 1.02 2.36.6 3.57-.24.53-.64.98-1.14 1.28-.68.43-1.48.64-2.29.6h-4.43v21.92c0 1.69-.4 2.9-1.28 3.5a4.34 4.34 0 01-2.76 1.01c-.4 0-.8-.07-1.2-.13a4.7 4.7 0 01-1.29-.68c-.46-.27-.8-.74-1.07-1.4a4.8 4.8 0 01-.47-2.3V25.82zm357.26-6.93c3.86.02 6.78 1.23 8.78 3.63 2.02 2.42 3.03 5.51 3.03 9.35v16.8c0 1.28-.34 2.22-1 2.7-.61.5-1.37.79-2.16.8a3.43 3.43 0 01-2.15-.8c-.67-.48-1.01-1.42-1.01-2.7V33.96c0-6.52-2.42-9.75-7.26-9.75-2.49 0-4.57.94-6.12 2.89-1.61 1.95-2.42 4.44-2.42 7.6v13.98c0 1.28-.33 2.22-1 2.7-.61.5-1.37.78-2.16.8a3.43 3.43 0 01-2.15-.8c-.67-.48-1-1.42-1-2.7V22.6c0-.88.2-1.62.6-2.16.25-.45.65-.8 1.14-1 .8-.27 1.68-.27 2.49 0 .4.13.8.47 1.2 1 .34.54.55 1.28.55 2.16v2.42h.2a9.78 9.78 0 014.1-4.37 12.17 12.17 0 016.25-1.75h.1zm-63.42 3.84v25.95c0 1.27-.34 2.21-1.01 2.69-.6.5-1.36.79-2.15.8a3.43 3.43 0 01-2.15-.8c-.68-.48-1.01-1.42-1.01-2.7V22.74c0-1.28.33-2.23 1-2.76a3.77 3.77 0 012.16-.74c.78.02 1.53.27 2.15.74.67.53 1 1.48 1 2.76zM128.1 48.74c-.81 2.29-2.22 3.43-4.24 3.43-2.08 0-3.5-1.14-4.24-3.43l-7.12-21.1h-.13l-7 21.1c-.73 2.29-2.15 3.43-4.16 3.43-2.09 0-3.5-1.14-4.3-3.43l-8.54-25a4.04 4.04 0 01-.27-1.49c0-.94.27-1.68.94-2.21a3.28 3.28 0 012.28-.81c1.55 0 2.56.87 3.1 2.69l6.85 22.18h.14l7.2-21.58c.73-2.22 2.01-3.3 3.96-3.3 1.95 0 3.23 1.08 3.97 3.3l7.19 21.58h.13l6.86-22.25c.54-1.75 1.55-2.62 3.03-2.62.87 0 1.68.27 2.28.8.56.58.88 1.36.88 2.16 0 .47-.07 1-.27 1.54l-8.54 25.01zm215-13.38c0 3.1.95 5.72 2.9 7.94 1.95 2.22 4.5 3.29 7.66 3.29 3.23 0 5.85-1.07 7.87-3.23a11.3 11.3 0 002.96-8c0-3.09-1-5.71-3.03-7.93a10.16 10.16 0 00-7.8-3.3c-3.22 0-5.78 1.08-7.66 3.23a11.5 11.5 0 00-2.9 8zM22.2 36.91h-1.82c-8.2 0-12.3 1.81-12.3 5.38 0 1.41.53 2.49 1.68 3.1 1.08.6 2.42.93 3.97.93 2.75 0 4.84-.74 6.32-2.22 1.4-1.4 2.15-3.43 2.15-6.05V36.9zm122.72-4.03h18.96a9.72 9.72 0 00-2.42-6.53c-1.54-1.68-3.7-2.48-6.52-2.48-2.69 0-4.97.87-6.86 2.62a9.57 9.57 0 00-3.16 6.39zm122.44 0h18.96a9.73 9.73 0 00-2.42-6.53c-1.55-1.68-3.7-2.48-6.52-2.48-2.7 0-4.98.87-6.86 2.62a9.58 9.58 0 00-3.16 6.39zm64.74-24.6c0 1.13-.4 2.07-1.2 2.81a4.32 4.32 0 01-6 0 3.67 3.67 0 01-1.2-2.82c0-1.14.4-2.09 1.2-2.9a4.06 4.06 0 012.97-1.2c1.14 0 2.15.4 3.02 1.14.8.78 1.23 1.85 1.21 2.96z"/>
</svg>