<svg xmlns="http://www.w3.org/2000/svg" fill-rule="evenodd" stroke-linejoin="round" stroke-miterlimit="2" clip-rule="evenodd" viewBox="0 0 301 56">
  <path fill="#e5d0b5" d="M1.3 27.7c-.5-.8-.5-1.9 0-3.2.7-1.8 2.4-4.1 5.2-7 3.2-3.2 6.9-6.3 11-9.2 4.2-2.9 8.4-5 12.7-6.5 4.3-1.4 7.7-1.4 10 0 2 1.2 2.8 3.4 2.3 6.6-.5 3.3-1.5 6.6-3 9.9A209.6 209.6 0 0133.7 29a205.5 205.5 0 01-7 11.4 115.1 115.1 0 013 .2c.4.1.7.4.8.8.2.3.2.7 0 1a1 1 0 01-1 .5l-4.5-.3c-3.6 4.8-7 8.2-10 10.1a11 11 0 01-6 2c-1.8 0-3.3-1.2-4.5-3.4a8.5 8.5 0 01-1-5.8c.4-2.2 2.2-3.8 5.6-4.6 1-.3 2.7-.6 4.9-.7 2.2-.2 3.9-.2 5.1-.2l5 .2a123.5 123.5 0 0015.3-28.6c.6-2 1-3.7.8-5.2 0-1.3-.5-2.2-1.3-2.6-1.9-1.2-4.7-1-8.5.3-4 1.4-7.8 3.5-11.8 6.2a76.5 76.5 0 00-14 12.8c-.8 1-1.3 2-1.5 2.5V26.5l.4.3h1c1.2 0 3.2-.4 6-1.4.3-.1.6 0 .8 0 .3.2.4.4.5.8.1.3.1.6 0 .8-.1.3-.3.5-.6.6A19.7 19.7 0 013.7 29c-1.2 0-2-.5-2.5-1.3zm21.2 14.8c-6.4-.4-11 0-13.7.8C7 44 6 44.7 5.8 46c-.2 1 0 2.4.8 4.1.4.9.8 1.5 1.2 2 .4.3.8.5 1.2.5 1.4 0 3-.5 4.8-1.6 2.5-1.6 5.4-4.4 8.7-8.4zM158 21.3c-.3-1 0-2.3 1-3.9a23 23 0 014-4.7A41.4 41.4 0 01178 4a38 38 0 0118.7-1.5c5.3 1.2 8.4 3.5 9.6 7 .8 2.5.2 5-1.8 7.6-2 2.5-5.5 4.7-10.8 6.5-1.6.5-5 1.3-10.3 2.5-3.7 9.7-5.9 15-6.4 15.8l-.6.7h-.3a1 1 0 01-.6-.2c-.3-.3-.8-.9-1.3-1.8-.6-1.2-1.2-2.7-1.6-4.4-.3-1.8-.3-3.6.3-5.4 1.1-3 4-5.3 8.8-6.7 2.6-6.6 4-10.2 4-10.5.3-.5.6-.7 1-.7s.8.2 1 .5c.3.3.4.7.2 1.1-.4.7-1.5 3.7-3.5 9 4-.8 6.9-1.5 8.5-2 4.1-1.4 7.2-3.1 9.3-5.2 2-2 2.6-4 2-6.1a6.9 6.9 0 00-2.9-3.5 15 15 0 00-5.4-2.2 27 27 0 00-7.8-.3 43.5 43.5 0 00-17.4 5.6c-2.5 1.5-4.5 3-6 4.4a23.4 23.4 0 00-3.6 4c-.5.7-.8 1.3-.9 1.8v.6c0 .2.2.2.4.2.6.1 1.7 0 3-.5h1c.2.2.4.4.5.8v.9a1 1 0 01-.8.5c-1.7.6-3.1.8-4.1.6-1.2-.2-1.9-.8-2.2-1.8zM104 31.5c-2 1.8-3.8 3-5.2 3.6-1.3.6-2.4.7-3.3.4-1.2-.3-2.1-1.2-2.8-2.7-1 1.7-2.1 2.7-3.1 3.1-1.8.6-3 .3-3.6-1-.2-.4-.3-1-.3-1.7a62.3 62.3 0 01-7.7 5.6c-1.3.6-2.4.5-3.2 0-.7-.6-1-1.4-1-2.7a19.8 19.8 0 01.5-4.7 34.5 34.5 0 01-5 3.7 20 20 0 01-7 2.8c-1.5.3-2.7 0-3.6-1v-.1a8 8 0 01-1.3-4.4 18.2 18.2 0 01-7.3 4.4c-.8 0-1.5 0-2-.4s-.9-1-1.1-1.8l-.4-2c-1.3 2.4-2.7 4-4.1 4.5-.3.2-.7.3-1.2.3-1 0-1.6-.5-2-1.5a9 9 0 01-.4-4v-1.4l-.4-.6c0-.4 0-.6.2-.9a1.3 1.3 0 01.7-.5c.4 0 .7 0 1 .2.2.1.4.3.6.7.2.5.3 1.4.2 2.5v.2a16 16 0 000 3c.4.1.7 0 1-.3a19.1 19.1 0 003.7-6.6l.6-1c.2-.3.4-.4.6-.5a1 1 0 01.8.2c.6.5.9 1.2.9 2.2v.9a47.2 47.2 0 00.2 3.2c0 .5.1.9.3 1 .2.2.3.3.5.3 1.7-.3 4.2-2 7.7-5.1a49.4 49.4 0 014-16.2c.7-1 1.3-2 2-2.7.7-.7 1.3-1.1 2-1.3l1.4-.2c.5 0 .8.1 1.1.3 1 .6 1.7 1.6 2 3.1.2 1.4 0 3-.6 4.8a33.5 33.5 0 01-9.6 13.3c0 1.6 0 2.8.2 3.7.1.5.3 1 .5 1.2.3.3.8.4 1.4.3a29.1 29.1 0 0011.8-6.8c.8-.9 1.6-1 2.2-.8.4.2.6.5.8 1.1a9 9 0 01-.2 3.2 20.7 20.7 0 00-.3 4.4h.2l.6-.1c2-.9 5.3-3.5 10-7.8a8 8 0 013.2-3.6c1.1-.6 2-.5 2.9 0 .8.6 1.1 1.5 1 2.8 0 .4-.3.7-.7.9-.4.1-.7 0-1-.1-.4-.2-.6-.6-.5-1v-.5-.2h-.3s-.2 0-.3.2c-1 .5-1.8 1.6-2.6 3.2-.4 1-.7 1.8-.7 2.5v.8h.2l.5-.1c.7-.3 1.5-1.3 2.5-3l1-1.4c.4-.2.6-.3 1-.3s.8.2 1 .8v.3c.3 1 .6 1.7 1 2.2.2.5.5.8.9.9.5.2 1.2 0 2.1-.4 1.4-.6 3.2-2 5.3-4 .2-.3.4-.4.7-.5.6-.2 1.2-.1 1.6.2.3.4.5 1 .5 1.7 0 1-.2 2-.5 3.2h.1l1.1-1 2.1-1.6c2-1.6 3.6-2.6 4.9-3 .9-.4 1.6-.4 2.2 0 .2 0 .4.2.5.3a2.3 2.3 0 01.6 1.1 5.6 5.6 0 01.2 1.3V32l-.1.6a5.8 5.8 0 000 1.4l.1.3h.3c2-.2 4.7-2 8.5-5.3a17 17 0 011.6-3.7c1.2-2 2.5-3 4-3.5 1-.2 1.9-.2 2.6.2.7.3 1.2.9 1.6 1.8.9 1.7 1 3.3.3 4.8-.1.5-.4.7-.8.8l.2.4.1.3c.3 1 .6 1.8 1 2.3.2.5.6.8 1 .9.5.2 1.2 0 2-.3 1.5-.7 3.2-2 5.3-4.2l.9-.3c.2 0 .5.1.7.4.3.2.4.5.4.8 0 .2 0 .5-.4.8a22 22 0 01-6.3 4.6 5 5 0 01-3.3.4c-1.2-.3-2.1-1.2-2.8-2.7a19 19 0 01-3.5 4.3c-.9.7-1.6 1-2.3 1-1 0-1.8-.4-2.3-1.4-.5-.9-.7-1.8-.7-2.8v-1.4l-2.7 2c-2 1.2-3.5 2-4.9 2.1-.6 0-1.2 0-1.6-.3-.4-.3-.8-.7-1-1.2-.3-1-.4-2.1-.2-3.2V30v-.2h-.3a226.1 226.1 0 01-9.7 7c-.8.5-1.3.5-1.7.2-.3-.3-.5-.8-.4-1.7 0-.8.2-1.5.4-2l.5-1.8zm143 2.1l-.9.9c-1 .9-2.1 1.7-3.4 2.5a7 7 0 01-3.4 1.1c-1.3 0-2.3-.4-2.9-1.3-.5-.8-1-2-1.1-3.5l-.1-1.2-3.2 2.4c-2 1.2-3.5 2-4.9 2.1-.7 0-1.2 0-1.6-.3-.4-.3-.8-.7-1-1.2-.3-1-.4-2.1-.3-3.2V30v-.2h-.2l-.7.3c-.9.4-2 1.3-3.7 2.6l-5.3 4.2c-.8.4-1.3.4-1.7 0-.3-.2-.5-.7-.5-1.6l.5-2 .5-1.8a62.3 62.3 0 01-9.6 7.3c-1.3.6-2.4.5-3.2 0-.6-.6-1-1.4-1-2.7 0-1 0-2.4.4-4.1l.2-1.2c-.3 0-.5-.1-.8-.3l-.3-.9c0-.2.1-.5.4-.7.9-.9 1.6-1 2.3-.8.3.2.6.5.7 1.1.1.7 0 1.8-.2 3.2a21 21 0 00-.3 4.5h.2l.6-.2a50.5 50.5 0 0010.7-8.2c.7-.3 1.3-.2 1.7.1.3.4.5 1 .5 1.7 0 1-.2 2-.5 3.2h.1l1.1-1 2.1-1.6a18 18 0 014.9-3c.9-.4 1.6-.4 2.2 0 .2 0 .4.2.5.3l.4.6.2.5.1.7v2.6a5.8 5.8 0 000 1.4l.1.3h.3c1.9-.2 4.7-2 8.4-5.3l.1-1.6.4-3 .3-2.3h-4.2l-.8-.4c-.2-.2-.3-.5-.3-.8 0-.4.1-.7.3-.9.2-.2.5-.3.9-.3a112.7 112.7 0 014.2 0h.2l.4-3c0-.5.2-.8.6-1 .4-.1.7 0 1 .1.5.2.7.6.7 1l-.4 3c1.5-.1 2.6-.3 3.2-.5.3-.2.6-.2.9-.1.2 0 .4.2.6.6.1.3.1.6 0 .8 0 .3-.2.5-.4.7-.8.4-2.3.6-4.6.7-.7 4.8-1 8.4-.7 10.8 0 1.4.4 2.4.9 2.8.3.3.7.3 1.1.3.6-.1 1.2-.4 2-1a74.4 74.4 0 007.5-6.2c1.1-1 2.4-1 3.8-.2.4.3.6.7.5 1.1 0 .3 0 .4-.2.6l1.2.3c2.7 1.1 5.3 1 7.8-.2l-.3-.1c-.5-.4-.8-.8-.9-1.3 0-1.1.6-2.2 2.2-3 1.5-.9 2.7-1 3.6-.4.7.4.9 1.2.5 2.5l-.2.6c.5.1.9.3 1.2.6.5.4.6 1 .3 1.6-.8 1.6-1.3 2.8-1.3 3.8 0 .5 0 .9.2 1.1.3.4.7.5 1.3.6 1 .2 2.5 0 4.4-.4a54.4 54.4 0 009.3-2.5l6-1.8 4.7-1c1.8-.4 3.3-.4 4.5-.3.4 0 .6.3.8.6l.8-.4a1.8 1.8 0 01.8.1c.3.2.6.4.7.8 0 .4 0 .7-.2 1a1 1 0 01-.9.4c-.5 0-.9-.1-1.1-.3l-.2-.3c-.2.3-.6.4-1 .4a49 49 0 00-8.5 1.3l-5.7 1.7c-6.8 2-11.3 3-13.5 3-1.9 0-3.2-.5-3.9-1.4-.6-.7-.9-1.7-.8-2.9.1-1 .5-2.2 1.1-3.5h-.6a11.4 11.4 0 01-11.3 2c-.1 3.3-1.3 5.1-3.5 5.6-.6.2-1.2.1-1.8-.2a3 3 0 01-1.4-1.3c-.5-.9-.7-2-.6-3.3zm-66.2-6.8c-1 .3-2.1.9-3.2 1.7-1.2.9-2 1.9-2.5 3-.7 2-.4 4.4 1 7.4l4.7-12.1zm71.4 3.8l-.4-.1c-.5-.3-1-.3-1.3 0-.6.6-.9 1.4-1 2.5-.3 1.2-.2 2.1.1 2.8l.3.4h.5c.6-.1 1-.6 1.3-1.3.3-.8.4-2 .3-3.5 0-.4 0-.6.2-.8zm-117.6-1.5l-.2-.2c-.2-.3-.3-.7-.1-1.1a3 3 0 000-2.7 2 2 0 00-.8-1h-1c-1 .2-1.8 1-2.7 2.6-1 1.6-1.5 3.3-1.8 5.1-.2 1.2-.2 2-.1 2.8.1.6.3 1 .6 1.2h.3l.4-.3c.8-.6 1.8-2 3.1-3.9l.2-.3 1.3-1.6.8-.6zm130.6-1.6c-.5.1-1 .4-1.4.8l.8.1.6-.8zM73.6 25.7c0 .5.2 1 .6 1.4.4.3.9.5 1.4.5.6 0 1-.2 1.5-.5.4-.4.6-.9.6-1.4 0-.8-.4-1.4-1-1.7-.7-.4-1.4-.4-2 0-.7.3-1.1.9-1.1 1.7zm125.5 0a2 2 0 002 2c.6 0 1.1-.3 1.5-.6.4-.4.6-.9.6-1.4 0-.8-.3-1.4-1-1.7-.7-.4-1.4-.4-2 0-.7.3-1 .9-1 1.7zM67.6 14.5c.1-.8 0-1.6-.1-2.3-.2-.6-.4-1-.9-1h-.5l-.8.6c-.6.6-1.2 1.4-1.7 2.5A45.6 45.6 0 0060.1 27c3.6-3.5 6-7 7.1-10.5l.4-2z"/>
  <path fill="#b3b397" d="M105 49.7v-.2l.2-.2H106l.4.1v.7h-.4V53c0 .6-.2 1-.5 1.3-.3.3-.8.4-1.5.4l-1-.1c-.2-.1-.3-.2-.3-.4l.1-.3.4-.2h.3l.5.1c.4 0 .7 0 .8-.2.2-.1.3-.4.3-.8v-.2a2.3 2.3 0 01-1.2.4c-.5 0-1-.2-1.3-.5-.3-.4-.5-.8-.5-1.3 0-.6.2-1 .5-1.4.4-.3.8-.5 1.4-.5l.6.1c.2 0 .4.2.5.4zm15.3-1.3l.2-.2h.5V50h-.4-.2l-.2-.3a1 1 0 00-.3-.5 1 1 0 00-.6-.2c-.4 0-.8.1-1 .4a2 2 0 00-.3 1.2c0 .5.1 1 .3 1.2.2.3.6.4 1 .4.2 0 .6 0 .9-.2l.6-.3.3.1.1.3c0 .3-.2.5-.6.7a3 3 0 01-1.4.3c-.7 0-1.3-.2-1.7-.7-.4-.4-.7-1-.7-1.8 0-.7.3-1.3.7-1.8.4-.4 1-.7 1.7-.7h.5l.6.3zm-46.6 4.5l-.3.2H73l-.1-.4V52v-.3l.4-.1c.1 0 .3 0 .4.2l.1.2.5.2.6.1h.4l.2-.4c0-.2-.3-.3-1-.4a6 6 0 01-.2 0 2 2 0 01-1-.5 1 1 0 01-.4-.7c0-.4.1-.7.4-.9a2 2 0 011.2-.3 3.6 3.6 0 011 .2l.2-.2h.5v1.1l-.3.1-.5-.2c-.3-.2-.5-.3-.8-.3a1 1 0 00-.5 0l-.2.4c0 .1.3.3.7.3h.4c.6.2 1 .3 1.2.5.2.1.4.4.4.7 0 .4-.2.8-.5 1a2 2 0 01-1.3.3 4.4 4.4 0 01-1.1-.2zm15.8-3.7c.6 0 1.2.2 1.6.6.4.3.6.8.6 1.4 0 .5-.2 1-.6 1.4-.4.3-1 .5-1.6.5-.7 0-1.2-.2-1.6-.5-.4-.4-.6-.9-.6-1.4 0-.6.2-1 .6-1.4.4-.4 1-.6 1.6-.6zm9.8 0c.7 0 1.2.2 1.6.6.4.3.6.8.6 1.4 0 .5-.2 1-.6 1.4-.4.3-1 .5-1.6.5-.6 0-1.1-.2-1.5-.5-.4-.4-.6-.9-.6-1.4 0-.6.2-1 .6-1.4.4-.4.9-.6 1.5-.6zm51 3h.3l.2.4c0 .1 0 .2-.2.3l-.4.1h-.6l-.2-.3-.7.3-.7.1c-.5 0-.8-.1-1-.3-.3-.2-.4-.5-.4-.9s.1-.7.4-1c.4-.2.8-.3 1.4-.3a4.5 4.5 0 01.9.1c0-.3 0-.5-.2-.6l-.5-.2c-.2 0-.4 0-.7.2l-.6.2-.3-.1-.1-.3c0-.2.1-.4.5-.5l1.3-.2c.5 0 1 .1 1.2.3.2.2.3.6.3 1.1v1.5zm-39.5 0h.4l.1.4v.3l-.5.1h-.6l-.2-.3a2.7 2.7 0 01-1.5.4c-.4 0-.7-.1-1-.3-.2-.2-.3-.5-.3-.9s.1-.7.4-1c.4-.2.8-.3 1.4-.3a4.3 4.3 0 01.9.1c0-.3 0-.5-.2-.6l-.5-.2c-.2 0-.4 0-.7.2l-.6.2-.3-.1-.1-.3c0-.2.1-.4.5-.5l1.2-.2c.6 0 1 .1 1.3.3.2.2.3.6.3 1.1v1.5zm34-2.7l.2-.2.3-.1.3.1v1.5l-.3.1h-.3l-.2-.3a1 1 0 00-.4-.4l-.6-.1a1 1 0 00-.8.3 1 1 0 00-.3.7c0 .4.1.6.3.9.2.2.5.3.8.3.4 0 .7-.1 1-.3l.5-.3.3.1v.3c0 .3-.1.5-.5.7a3 3 0 01-1.3.3c-.7 0-1.2-.2-1.6-.5-.4-.4-.6-.9-.6-1.4 0-.6.2-1 .6-1.4.4-.4.9-.6 1.5-.6a2.4 2.4 0 011.2.3zm-59 0l.1-.2.3-.1.3.1v1.5l-.3.1h-.3l-.2-.3a1 1 0 00-.4-.4l-.7-.1a1 1 0 00-.7.3 1 1 0 00-.3.7c0 .4 0 .6.3.9.2.2.5.3.8.3l1-.3.5-.3.3.1v.3c0 .3-.1.5-.5.7-.4.2-.8.3-1.4.3-.6 0-1.1-.2-1.5-.5-.4-.4-.6-.9-.6-1.4 0-.6.2-1 .6-1.4.4-.4.9-.6 1.5-.6a2.4 2.4 0 011.2.3zm49.7 2.6l.4.1.1.4v.3l-.5.1h-1l-.4-.1v-.3-.4h.4V51l-.1-.7c0-.2-.2-.2-.5-.2-.2 0-.4 0-.5.2a1 1 0 00-.2.7V52l.4.1.1.4-.1.3-.4.1h-1l-.4-.1-.1-.3.1-.4h.4v-2l-.4-.1-.1-.4.1-.3.4-.1H133.1v.5l.5-.5.6-.1c.5 0 .8.1 1 .4.2.3.3.6.3 1.2V52zm-11 0h.8l.4.1.1.4v.3l-.5.1h-2.7l-.4-.1v-.3-.4h1.3v-3.6h-.9v-.4-.3l.4-.1h1.4v4.3zm-55.3-.8v.8h.5l.3.1.1.4v.3l-.4.1h-1.4l-.4-.1-.1-.3v-.4h.4v-3l-.3-.2-.1-.3v-.3l.5-.2h1.6c.7 0 1.2.2 1.5.4.3.3.5.6.5 1.1 0 .6-.2 1-.5 1.2-.3.3-.8.4-1.5.4h-.7zm70.1.8h.9l.4.1v.7l-.4.1h-2.7l-.4-.1-.1-.3v-.4h1.3v-2h-.4l-.4-.1-.1-.4v-.3l.5-.1h1.4V52.1zm-59.1 0h.9l.4.1v.7l-.4.1h-2.7l-.4-.1-.2-.3c0-.2 0-.3.2-.4H79.2v-2h-.4l-.4-.1-.1-.4v-.3l.5-.1H80l.1.2V52zm49.3 0h.8l.4.1.1.4v.3l-.5.1h-2.7l-.4-.1v-.3-.4h1.3v-2h-.5l-.4-.1v-.4-.3l.4-.1h1.4V52.1zm-34.6 0h.9l.4.1v.7l-.4.1H93l-.4-.1-.1-.3v-.4H94v-3.6h-.8l-.1-.4v-.3l.5-.1h1.4v4.3zm15-.7a4.7 4.7 0 00-.7-.1l-.7.1c-.2.1-.3.2-.3.4s0 .3.2.4l.5.1a1.7 1.7 0 001-.3v-.6zm39.4 0a4.7 4.7 0 00-.7-.1l-.7.1c-.2.1-.2.2-.2.4l.1.4.5.1a1.7 1.7 0 001-.3v-.6zM89.5 50a1 1 0 00-.8.3 1 1 0 00-.3.7c0 .4.1.6.3.8.2.3.5.4.8.4.3 0 .6-.1.8-.4.2-.2.3-.4.3-.8a1 1 0 00-.3-.7 1 1 0 00-.8-.3zm9.8 0a1 1 0 00-.7.3 1 1 0 00-.3.7c0 .4 0 .6.3.8.2.3.4.4.7.4.4 0 .6-.1.8-.4.2-.2.3-.4.3-.8a1 1 0 00-.3-.7 1 1 0 00-.8-.3zm4.8 0c-.3 0-.5 0-.7.2a1 1 0 00-.2.8c0 .2 0 .5.2.7.2.2.4.3.7.3.3 0 .5-.1.7-.3l.2-.7c0-.3 0-.6-.2-.8a.8.8 0 00-.7-.3zm-34.9-1v1.3h.6c.3 0 .6 0 .7-.2.2 0 .3-.2.3-.4s-.1-.4-.3-.5l-.7-.2h-.6zM128 49l-.2-.4 2-1h.2l.2.4v.1l-.1.1-2.1.8zm-39.2 0l-.2-.4 2-1h.1l.3.4v.1l-.1.1-2.1.8zm-9.2-1.5l.4.1.1.5v.5l-.5.1h-.4v-.4-.7l.4-.1zm59.1 0l.4.1.1.5v.5l-.5.1h-.4v-.4-.7l.4-.1zM209.4 48l-2.4 5-.2.4h-.5l-.2-.3.1-.4 2.4-5 .2-.4h.5l.2.3v.2l-.1.2zm9 2.3c.2 0 .5.2.6.4.2.2.2.5.2.8 0 .5-.1 1-.5 1.2a2 2 0 01-1.4.4c-.4 0-.8 0-1.1-.2-.3-.1-.5-.3-.5-.6l.1-.3h.9l.7.3.6-.2.2-.6c0-.3 0-.5-.2-.6l-.6-.2h-.4v-.4c0-.2 0-.3.3-.4.3 0 .5 0 .6-.2l.1-.5-.1-.4-.4-.2-.7.2-.5.2-.3-.1v-.3c0-.2.1-.4.4-.5.3-.2.7-.3 1.2-.3.4 0 .8.1 1 .4.4.2.5.5.5 1 0 .2 0 .4-.2.6l-.6.5zm-20.5-2.5c.6 0 1 .3 1.4.7.4.5.6 1.2.6 2s-.2 1.4-.6 2c-.3.4-.8.6-1.4.6-.6 0-1.1-.2-1.5-.7-.3-.5-.5-1.1-.5-2 0-.7.2-1.4.5-1.9.4-.4.9-.7 1.5-.7zm23.9 1v1a4.4 4.4 0 01.9-.2c.4 0 .8.2 1.1.5.3.3.5.7.5 1.2 0 .6-.2 1-.6 1.4-.3.3-.9.4-1.6.4a3 3 0 01-1.1-.1c-.3-.1-.4-.3-.4-.5 0-.1 0-.3.2-.3l.3-.2.5.1.6.1c.3 0 .6 0 .7-.2.2-.1.3-.4.3-.6 0-.3 0-.5-.2-.7a.8.8 0 00-.7-.3l-.6.2-.5.2c-.1 0-.2 0-.3-.2v-2.4-.2h3.1l.1.4v.3l-.4.1h-2zm5 0v1a4 4 0 01.8-.2c.5 0 .9.2 1.1.5.3.3.5.7.5 1.2 0 .6-.2 1-.6 1.4-.3.3-.8.4-1.5.4a3 3 0 01-1.2-.1c-.2-.1-.4-.3-.4-.5 0-.1 0-.3.2-.3l.3-.2.5.1.7.1c.3 0 .5 0 .7-.2l.2-.6c0-.3 0-.5-.2-.7a.8.8 0 00-.6-.3l-.7.2-.4.2c-.2 0-.3 0-.4-.2v-2.4-.2h3.2v.7l-.4.1h-1.9zm-47.4-.4l.2-.2h.5V50h-.6l-.2-.3a1 1 0 00-.3-.5 1 1 0 00-.6-.2c-.4 0-.7.1-1 .4a2 2 0 00-.3 1.2c0 .5.1 1 .3 1.2.3.3.6.4 1 .4.3 0 .6 0 1-.2l.6-.3.2.1.1.3c0 .3-.2.5-.6.7a3 3 0 01-1.4.3c-.7 0-1.3-.2-1.7-.7-.4-.4-.6-1-.6-1.8 0-.7.2-1.3.6-1.8.5-.4 1-.7 1.7-.7h.5l.6.3zm22.6 1.8l.5-.4h.6c.4 0 .8 0 1 .4.4.3.5.7.5 1.2s-.1 1-.5 1.3c-.3.3-.7.4-1.3.4-.6 0-1-.2-1.3-.6-.4-.4-.5-1-.5-1.7 0-.9.2-1.6.7-2.2.5-.5 1.2-.8 2-.8h.6c.2.1.2.2.2.3 0 .3-.2.4-.5.4a8 8 0 00-.4 0c-.4 0-.8.2-1 .5-.3.3-.5.7-.6 1.2zm12-1.8l-1.2 4.5v.1h-1.1v-.1l1.4-4h-1.7l-.1.2-.3.1h-.2l-.1-.3v-.7l.2-.2h3.1v.4zm-29.9 2.4l.2.3.7 1h.1l.4.1v.7l-.4.1h-.5c-.2 0-.3 0-.4-.2l-1-1.6h-.2l-.1-.1h-.4v1l.4.1.1.4-.1.3-.4.1h-1l-.4-.1-.1-.3v-.4h.4v-3l-.3-.2-.1-.3v-.3l.5-.2h1.8c.6 0 1 .2 1.3.4.3.2.4.5.4 1 0 .3 0 .5-.2.7-.2.3-.4.4-.7.5zm47.7 1.3h1.4c0-.2 0-.3.2-.3l.3-.1h.2l.1.3v1h-3.2l-.3-.1v-.3-.3l.2-.3 1.7-1.6.4-.5v-.5-.5l-.6-.2a1 1 0 00-.4 0l-.2.2-.2.2c0 .2-.2.3-.4.3l-.3-.1v-.4-.4l.2-.3.7-.3h.8c.5 0 .9 0 1.1.3.3.3.5.7.5 1.1 0 .3 0 .6-.2 1a3 3 0 01-.8.8l-1.2 1zm-44.3-.8v.8h.4l.4.1v.7l-.4.1h-1.4l-.4-.1v-.3-.4h.4v-3l-.4-.2v-.3-.3l.4-.2h1.7c.6 0 1.1.2 1.5.4.3.3.5.6.5 1.1 0 .6-.2 1-.5 1.2-.4.3-.9.4-1.5.4h-.7zm16.1.2c0-.3 0-.5-.2-.7a.7.7 0 00-.6-.2c-.2 0-.4 0-.5.2-.2.2-.2.4-.2.6 0 .3 0 .5.2.7.1.2.3.2.6.2.2 0 .4 0 .5-.2l.2-.6zm-5.7-2.8c-.3 0-.5.2-.7.5-.2.3-.2.7-.2 1.3 0 .5 0 1 .2 1.3.2.3.4.4.7.4.3 0 .5-.1.7-.4l.2-1.3c0-.6 0-1-.2-1.3-.2-.3-.4-.5-.7-.5zm-10.4.4v1.3h.6c.3 0 .5 0 .7-.2l.2-.4c0-.2 0-.4-.2-.5l-.7-.2h-.6zm-5 0v1.1h1.2l.2-.5c0-.2 0-.4-.2-.5h-1.2z"/>
  <path fill="#c29151" fill-opacity=".6" d="M165 54.9l-.1.2c-.6.1-1.2 0-1.7-.4-.4-.3-.8-.7-1-1.2l-.3-.7-1 .7c-.5.2-1 .3-1.5.2a1.4 1.4 0 01-.9-.6v-.3l.1-.1h1.5c.4 0 .7 0 1-.3h-1a2.6 2.6 0 01-1.9-1.1l-.1-.4c0-.1 0-.2.2-.3h.3c.3 0 .5.2.7.4l.6.4a3.4 3.4 0 001.3.4h.5v-.1-.2l-.6-.3a3.5 3.5 0 01-2-2.3v-.4c0-.1 0-.2.2-.3h.4v.2l.2.1.5.4.5.6.3.5a3 3 0 00.8.6h.2v-.2-.4-.6l.1-1.3.1-.3.2-.3.2-.2h.4l.1.4V48.6a2.2 2.2 0 000 .6V49.5h.1l.2-.4.2-1c0-.3.1-.6.3-.8l.4-.3.7-.6.2-.1.2-.1h.2v.7a2.5 2.5 0 01-.8 1.8h.2l.5-.6.2-.3h.2c0-.1.1-.1.2 0l.1.1v.7l-.4.7a2.7 2.7 0 01-1.3.9l-.6.3c-.2 0-.3.2-.4.3v.1h1.1c.5-.1.9-.4 1.2-.7l.3-.2c.1 0 .3-.1.4 0 .2 0 .2.2.2.4l-.1.3c-.2.5-.6.8-1 1l-1.7.3h-.5-.6v.2l.3.3.3.3.7.5c.5.3 1 .5 1.5.5l.4-.1h.4v.5l-.2.2-.4.1a4 4 0 01-.5 0 2 2 0 01-.8 0h-.2c.2 0 .3.2.5.4z"/>
</svg>