<svg xmlns="http://www.w3.org/2000/svg" fill-rule="evenodd" stroke-linejoin="round" stroke-miterlimit="2" clip-rule="evenodd" viewBox="0 0 530 98">
  <path fill="#efe1d0" fill-rule="nonzero" d="M2 49.4c-1-1.4-1-3.3-.1-5.7 1.2-3.1 4.3-7.2 9.2-12.3 5.7-5.7 12.1-11.1 19.4-16.2A89 89 0 0152.8 3.8c7.7-2.6 13.6-2.6 17.7-.1 3.6 2.1 5 6 4 11.6-.8 5.8-2.7 11.7-5.4 17.5l-4.6 9.4a220.6 220.6 0 01-10.5 18 726 726 0 01-7.2 11.6 202.8 202.8 0 015.4.4 2 2 0 011.5 1.3 2 2 0 01-.2 1.9c-.4.6-1 .9-1.8.8l-7.7-.5a75.4 75.4 0 01-17.8 17.8 19.5 19.5 0 01-10.4 3.6c-3.3-.3-6-2.3-8-6A15 15 0 016 80.6c.7-3.8 4-6.6 10-8 1.9-.6 4.8-1 8.6-1.4 3.8-.1 6.8-.2 9-.1l8.7.3c5.2-7 10.7-16 16.5-27A165 165 0 0065 32.2c1.7-3.9 3.2-7.6 4.3-11.2a26 26 0 001.4-9c0-2.4-.8-4-2.2-4.8-3.5-2-8.5-1.7-15.1.6a86.8 86.8 0 00-20.8 11c-6.8 4.7-13 9.8-18.6 15.4-2.5 2.6-4.5 5-6 7-1.4 2-2.3 3.5-2.6 4.5L5 46.8l.1.3.2.2c.1.2.3.4.6.5.5.1 1 .2 1.7.1 2.2 0 5.7-.9 10.5-2.5.7-.3 1.2-.2 1.6 0 .4.3.7.7.9 1.4v1.4a2 2 0 01-1.2 1c-5.8 2-10.2 2.8-13.1 2.5-2.2-.2-3.6-1-4.4-2.3zm37.2 26c-11.1-.6-19.1 0-24 1.5-3.1 1-5 2.5-5.3 4.6-.4 1.8.1 4.3 1.5 7.3.6 1.4 1.3 2.5 2 3.3.7.6 1.4 1 2 1h.1c2.5 0 5.3-.9 8.4-2.8 4.6-2.8 9.7-7.8 15.3-14.9zm239-37.3c-.5-1.7 0-4 1.7-6.8 1.6-2.7 4-5.5 7-8.4a73 73 0 0126.5-15.3c13-3.8 24-4.7 33.1-2.6 9.3 2 14.8 6.2 16.8 12.3 1.5 4.4.4 8.9-3.1 13.5A39.7 39.7 0 01341 42.2c-2.7.9-8.7 2.3-18 4.3a416.7 416.7 0 01-11.3 27.9l-1 1.2-.7.2c-.3 0-.7-.1-1-.5-.6-.5-1.3-1.5-2.2-3.1a30.5 30.5 0 01-2.8-7.9c-.7-3-.5-6.3.4-9.5 2-5.3 7.1-9.2 15.5-11.7l7.2-18.6c.3-.8.9-1.2 1.7-1.2.7 0 1.3.3 1.7.8.6.6.7 1.3.3 2l-6.2 16c7.2-1.6 12.3-2.8 15.1-3.7a39.4 39.4 0 0016.3-9.2c3.4-3.5 4.6-7 3.4-10.7-.8-2.3-2.4-4.4-4.9-6-2.5-1.8-5.7-3.1-9.5-4-3.9-.8-8.5-1-13.8-.5a76.7 76.7 0 00-30.6 9.8 67.7 67.7 0 00-10.7 7.8 41.2 41.2 0 00-6.2 7c-.9 1.3-1.4 2.3-1.6 3.2-.2.4-.2.8-.1 1.1 0 .3.4.3.8.4 1.1.1 2.9-.2 5.4-1 .7-.2 1.2-.1 1.6 0 .4.3.7.8.8 1.5.2.6.1 1 0 1.5a2 2 0 01-1.2 1c-3.2 1-5.6 1.3-7.4 1-2-.3-3.3-1.4-3.8-3.2zm-95.3 18a34.4 34.4 0 01-9.2 6.4 8.6 8.6 0 01-5.8.7c-2-.6-3.7-2.2-5-4.9-1.8 3-3.7 4.9-5.4 5.6-3.1 1-5.2.4-6.3-1.7-.4-1-.6-2-.5-3l-5.8 4.6a50.2 50.2 0 01-7.9 5.1c-2.2 1-4.1 1-5.5 0v-.1c-1.2-.9-1.8-2.4-1.9-4.5a35 35 0 011-8.3 60.7 60.7 0 01-9 6.5 35.2 35.2 0 01-12.2 5c-2.6.4-4.7-.3-6.2-2a14.2 14.2 0 01-2.4-7.8A32 32 0 0188 65.4c-1.4.2-2.5 0-3.4-.7a5.7 5.7 0 01-2-3.2c-.3-1.1-.6-2.3-.7-3.6-2.4 4.4-4.8 7-7.3 8.1-.6.3-1.2.4-2 .4-1.7 0-3-.8-3.7-2.6a15.9 15.9 0 01-.6-7v-2.4a2 2 0 01-.6-1.2c-.2-.6 0-1 .2-1.5a2.4 2.4 0 011.4-1c.6 0 1.1.1 1.6.4.4.2.8.6 1 1.2.4 1 .6 2.5.4 4.5v.4a28.3 28.3 0 00.2 5.2c.5.2 1 0 1.6-.4a33.7 33.7 0 006.6-11.5v-.1c.3-1 .7-1.6 1-2 .4-.4.7-.6 1.1-.7a1.8 1.8 0 011.4.4c1 .7 1.5 2 1.5 3.8v1.5A83.2 83.2 0 0086 59c.2.9.4 1.5.7 1.9.2.2.5.3.8.3 3-.4 7.5-3.5 13.5-9a87 87 0 017.3-28.4c1-2 2.1-3.6 3.3-4.8 1.2-1.2 2.4-2 3.5-2.3 1-.3 1.9-.4 2.6-.3.8 0 1.4.2 1.9.5 1.8 1 3 2.8 3.4 5.5.4 2.4.1 5.2-1 8.4a59 59 0 01-17 23.4c0 2.8.2 5 .5 6.5.2 1 .5 1.7 1 2v.1c.5.7 1.2.8 2.3.6a51.3 51.3 0 0020.8-12c1.5-1.6 2.8-1.9 4-1.4.6.3 1 1 1.3 2 .2 1.2 0 3-.4 5.6a36.6 36.6 0 00-.5 7.6v.3h.4a88.4 88.4 0 0018.7-14 14 14 0 015.5-6.4c2-1 3.8-1 5.2 0 1.4 1.1 2 2.7 1.8 4.8 0 .8-.5 1.3-1.2 1.6a2 2 0 01-1.9-.1c-.6-.4-1-1-.8-1.9V49l-.1-.4h-.4l-.6.3c-1.7 1-3.1 2.8-4.5 5.7-.8 1.8-1.2 3.2-1.3 4.4l.1 1.4h.2c.3 0 .6 0 1-.2 1.2-.5 2.6-2.3 4.3-5.3a8.3 8.3 0 012-2.3c.5-.4 1-.6 1.4-.6.9-.1 1.6.3 1.9 1.4l.1.4c.5 1.7 1 3 1.6 4 .5.8 1 1.4 1.7 1.6 1 .3 2.2 0 3.7-.7 2.5-1.2 5.6-3.6 9.4-7.3a2 2 0 011.1-.6c1.2-.4 2.2-.3 2.8.4.7.6 1 1.5 1 2.8 0 1.8-.3 3.7-.9 5.8l.2-.2 2-1.5 3.7-3c3.5-2.8 6.3-4.6 8.5-5.3 1.6-.6 3-.6 4-.1l.9.7a4 4 0 011 2 9.8 9.8 0 01.2 2.3V58a10.1 10.1 0 000 2.4c0 .2 0 .4.2.5l.4.1c3.4-.4 8.4-3.6 15-9.5.7-2.2 1.7-4.4 2.9-6.4 2-3.4 4.4-5.5 7-6.2h.1c1.7-.4 3.2-.3 4.4.3 1.2.6 2.2 1.6 3 3.2a10 10 0 01.5 8.5c-.3.8-.8 1.2-1.5 1.3l.4.7.2.7c.4 1.7 1 3 1.6 4 .5.9 1.1 1.4 1.8 1.6 1 .3 2.2 0 3.7-.6 2.5-1.2 5.6-3.7 9.3-7.4a2 2 0 011.5-.5c.4 0 .9.2 1.3.6.5.5.7 1 .7 1.4 0 .5-.2 1-.7 1.5-4.3 4.2-8 6.9-11 8.2a9 9 0 01-5.9.7c-2.1-.6-3.8-2.3-5-4.9a33.6 33.6 0 01-6.2 7.7c-1.5 1.2-2.8 1.8-4 1.8-1.8 0-3.2-.8-4.1-2.6a9.8 9.8 0 01-1.2-4.9v-2.4a73.4 73.4 0 01-4.8 3.5 22 22 0 01-8.6 3.7c-1.1 0-2-.1-2.8-.5a4 4 0 01-1.7-2.2c-.7-1.8-.8-3.7-.5-5.7 0-1.5.1-2.6 0-3.2V53h-.4l-1.2.5c-1.6.8-3.8 2.3-6.6 4.6l-9.3 7.3c-1.4.8-2.4.7-3 .3-.6-.5-1-1.4-.8-3 .1-1.4.4-2.6.7-3.7l.9-3zM435 59.9l-1.6 1.4c-1.8 1.6-3.8 3-6 4.4-2.4 1.4-4.4 2-6.1 2-2.3 0-3.9-.7-5-2.2-1-1.5-1.6-3.5-2-6.2l-.2-2a72.3 72.3 0 01-5.6 4 22 22 0 01-8.6 3.8c-1.2 0-2.1-.1-2.9-.5a4 4 0 01-1.7-2.2c-.6-1.8-.8-3.7-.5-5.7a17 17 0 000-3.2V53h-.4l-1.2.5c-1.5.8-3.7 2.3-6.5 4.6l-9.4 7.3c-1.4.8-2.3.7-3 .3-.5-.5-.9-1.4-.8-3 .2-1.4.4-2.6.8-3.7l.8-3c-2.8 2.7-5.8 5.3-9 7.7-3.9 2.8-6.5 4.5-7.9 5.1-2.2 1-4 1-5.5 0v-.1c-1.1-.9-1.8-2.4-1.9-4.5 0-2 .2-4.4.8-7.4l.4-2h-.1c-.5 0-.9-.2-1.3-.6a2 2 0 01-.6-1.5c0-.5.3-1 .7-1.4 1.5-1.5 2.9-1.8 4-1.3.6.3 1 1 1.3 2 .2 1.2.1 3-.4 5.6a36.9 36.9 0 00-.5 7.9h.4a4 4 0 001-.4 89 89 0 0017.9-13.9l1-.6c1.3-.4 2.2-.3 2.9.4.6.6 1 1.5.9 2.8 0 1.8-.3 3.7-.8 5.8l.2-.2 2-1.5 3.6-3c3.5-2.8 6.4-4.6 8.6-5.3 1.6-.6 3-.6 3.9-.1l1 .7.6 1 .4 1 .2 1.2V58a10.1 10.1 0 000 2.4l.1.5.5.1c3.4-.4 8.3-3.6 14.8-9.3 0-1 .1-1.9.3-2.9l.6-5.5.5-4h-7.3a2 2 0 01-1.4-.6 2 2 0 01-.6-1.5c0-.6.2-1.1.6-1.5a2 2 0 011.4-.5 198.7 198.7 0 017.4.1h.5l.6-5.3c0-.9.4-1.5 1.1-1.8.7-.2 1.3-.2 2 .2.6.3 1 1 1 1.7l-.6 5.2c2.6-.1 4.4-.4 5.5-.8a2 2 0 011.6-.3c.4.2.8.5 1 1.1.3.6.4 1 .2 1.5 0 .5-.4.9-.9 1.2v.1c-1.3.6-3.9 1-8 1.2a87 87 0 00-1.3 19c.2 2.5.7 4.2 1.6 5 .6.4 1.2.5 2 .4 1-.2 2-.7 3.4-1.6A131.1 131.1 0 00438.8 51c2-1.6 4.2-1.7 6.6-.2.8.5 1 1.1 1 1.9 0 .4-.2.7-.3 1 .5 0 1.2.2 2.1.5 4.8 2 9.3 1.8 13.6-.4l-.4-.2c-1-.5-1.5-1.3-1.6-2.2-.1-2 1-3.8 3.8-5.3 2.8-1.6 5-1.7 6.4-.7 1.2.7 1.6 2.2 1 4.5h-.1l-.4 1c.9.2 1.6.5 2.1 1 1 .7 1.2 1.6.6 2.8-1.4 2.9-2.2 5-2.4 6.7 0 .9.1 1.6.5 2 .5.6 1.2 1 2.2 1 1.8.4 4.4.1 7.7-.7l7.6-1.8 9-2.6 10.6-3.1c2.5-.7 5.2-1.3 8.1-1.8a24 24 0 017.9-.5c.7.1 1.2.4 1.5 1a2 2 0 011.4-.6 3 3 0 011.3.1c.7.3 1 .8 1.3 1.4a2 2 0 01-.3 1.7c-.4.6-1 .8-1.6.8-.9 0-1.5-.2-2-.6a2 2 0 01-.3-.5c-.4.5-1 .8-1.8.7-1.7-.3-4 0-7 .5-2.8.5-5.4 1-8 1.8l-10 3c-12 3.5-20 5.3-23.7 5.3-3.4 0-5.7-.9-7-2.4-1-1.3-1.5-3-1.3-5.2.2-1.7.8-3.8 1.9-6.2h-1a20.2 20.2 0 01-20 3.7c-.2 5.7-2.3 8.9-6 9.8-1.2.3-2.3.2-3.4-.4-1-.5-1.9-1.3-2.4-2.3-.9-1.6-1.2-3.5-1-5.7zM318.2 47.8a23 23 0 00-5.5 3 12.5 12.5 0 00-4.4 5.4c-1.3 3.3-.7 7.6 1.6 13a1416 1416 0 008.3-21.4zm126 6.8c-.3 0-.6-.2-.8-.3-.9-.5-1.6-.5-2.3 0-1 1-1.6 2.5-1.9 4.5a8 8 0 00.4 4.9c.1.3.3.5.5.6h.7c1.1-.2 1.9-1 2.3-2.2.6-1.5.8-3.6.7-6.3 0-.5.1-1 .3-1.2zm-207.3-2.7a2 2 0 01-.3-.4 2 2 0 01-.3-2c.7-1.5.7-3 0-4.6-.4-.8-.8-1.4-1.3-1.7-.5-.3-1.1-.4-1.8-.3-1.7.4-3.3 2-4.9 4.8a27.4 27.4 0 00-3.1 9c-.3 2-.4 3.6-.1 4.8.1 1 .5 1.8 1 2.2h.5l.8-.6c1.4-1 3.2-3.3 5.4-6.8l.4-.5c.9-1.4 1.7-2.3 2.3-3 .5-.5 1-.8 1.4-.9zM467 49.1c-.8.2-1.6.7-2.5 1.4l1.4.2c.5-.6.9-1.1 1-1.5h.1zm-337.6-3.3c0 1 .3 1.8 1 2.4.7.7 1.6 1 2.6 1s1.8-.3 2.5-1c.7-.6 1-1.4 1-2.4 0-1.4-.6-2.4-1.8-3a4 4 0 00-3.5 0c-1.2.6-1.8 1.6-1.8 3zm221.2 0c0 1 .3 1.8 1 2.4.8.7 1.6 1 2.6 1s1.8-.3 2.5-1c.7-.6 1-1.4 1-2.4 0-1.4-.6-2.4-1.8-3a4 4 0 00-3.5 0c-1.2.6-1.8 1.6-1.8 3zM118.8 26.2c.2-1.4.1-2.8-.2-4.1-.3-1-.7-1.7-1.5-1.8l-1 .1-1.3 1c-1.1 1-2.1 2.5-3 4.4a80.4 80.4 0 00-6.2 22.4 49.5 49.5 0 0012.5-18.6c.3-1.1.6-2.3.7-3.4z"/>
  <path fill="#4d4d4d" fill-rule="nonzero" d="M.8 48.2c-1-1.4-1-3.3-.1-5.7 1.2-3.1 4.3-7.3 9.2-12.3C15.5 24.5 22 19.1 29.3 14A89 89 0 0151.6 2.6C59.3 0 65.2 0 69.3 2.5c3.6 2.1 5 6 4 11.6-.8 5.8-2.7 11.7-5.4 17.5L63.3 41a220.6 220.6 0 01-10.5 18 726 726 0 01-7.2 11.6 202.8 202.8 0 015.4.4 2 2 0 011.4 1.2 2 2 0 01-.1 2c-.4.6-1 .9-1.8.8l-7.7-.5A75.4 75.4 0 0125 92.3 19.5 19.5 0 0114.6 96c-3.3-.3-6-2.3-8-6a15 15 0 01-1.9-10.4c.7-3.8 4-6.6 9.9-8 2-.6 4.8-1 8.7-1.4 3.8-.2 6.8-.2 9-.2l8.7.4c5.2-7 10.7-16 16.5-27A165 165 0 0063.8 31c1.7-3.9 3.2-7.6 4.3-11.2a26 26 0 001.4-9c0-2.4-.8-4-2.3-4.8-3.4-2-8.4-1.7-15 .6a86.8 86.8 0 00-20.8 11c-6.8 4.7-13 9.8-18.6 15.4-2.5 2.6-4.5 5-6 7-1.4 2-2.3 3.5-2.7 4.5L4 45.6l.1.3.2.2c.1.2.3.4.6.5.4.1 1 .2 1.7.1 2.2 0 5.7-.9 10.5-2.5.7-.3 1.2-.2 1.6 0 .4.3.7.7.9 1.4V47a2 2 0 01-1.2 1C12.5 50 8 50.9 5.2 50.6c-2.2-.2-3.6-1-4.4-2.3zm37.2 26C27 73.6 19 74 14 75.7c-3.2 1-5 2.5-5.3 4.5-.4 2 0 4.4 1.4 7.4.7 1.4 1.4 2.5 2.2 3.2.6.7 1.3 1 2 1 2.5.1 5.3-.8 8.4-2.7 4.6-2.8 9.7-7.8 15.3-15zm239-37.3c-.5-1.7 0-4 1.7-6.8 1.6-2.7 4-5.5 7-8.4a73 73 0 0126.5-15.3c13-3.8 24-4.7 33.1-2.6 9.3 2 14.8 6.2 16.8 12.3 1.5 4.4.4 8.9-3.2 13.5A39.7 39.7 0 01340 41c-2.7.9-8.7 2.3-18 4.3a416.7 416.7 0 01-11.3 27.9l-1 1.2-.7.2c-.3 0-.7-.1-1-.5-.6-.5-1.3-1.5-2.2-3.1a30.5 30.5 0 01-2.8-8c-.7-3-.5-6.2.4-9.4 2-5.3 7.1-9.2 15.5-11.7l7.2-18.6c.3-.8.9-1.2 1.7-1.2.7 0 1.3.3 1.7.8.6.6.7 1.3.3 2l-6.2 16c7.2-1.6 12.3-2.8 15.1-3.7A39.4 39.4 0 00355 28c3.4-3.5 4.6-7 3.4-10.7-.8-2.4-2.4-4.4-4.9-6-2.5-1.8-5.7-3.1-9.5-4-3.9-.8-8.5-1-13.8-.5a76.7 76.7 0 00-30.6 9.8 67.7 67.7 0 00-10.7 7.8 41.2 41.2 0 00-6.2 7c-.9 1.3-1.4 2.3-1.6 3.2-.2.4-.2.8-.1 1.1 0 .3.4.3.8.4 1 .1 2.9-.2 5.4-1 .7-.2 1.2-.2 1.6 0 .4.3.7.8.8 1.5.2.6.1 1 0 1.5a2 2 0 01-1.3 1c-3 1-5.5 1.3-7.3 1-2-.3-3.3-1.4-3.8-3.2zm-95.3 18a34.4 34.4 0 01-9.2 6.4 8.6 8.6 0 01-5.8.7c-2-.7-3.7-2.3-5-4.9-1.8 3-3.7 4.9-5.4 5.6-3.1 1-5.2.4-6.3-1.7-.4-1-.6-2-.5-3.1l-5.8 4.7a50.2 50.2 0 01-7.9 5c-2.2 1.1-4.1 1-5.5 0-1.2-.9-1.8-2.4-1.9-4.6a35 35 0 011-8.2 60.7 60.7 0 01-9 6.5 35.2 35.2 0 01-12.2 5c-2.6.4-4.7-.3-6.2-2a14.2 14.2 0 01-2.4-7.8A32 32 0 0186.7 64c-1.4.3-2.5 0-3.5-.6a5.7 5.7 0 01-2-3.2c-.3-1.1-.5-2.3-.6-3.6-2.4 4.4-4.8 7-7.3 8.1-.6.3-1.2.4-2 .4-1.7 0-3-.8-3.7-2.6a15.9 15.9 0 01-.6-7v-2.5a2 2 0 01-.6-1.1c-.2-.6 0-1 .2-1.5a2.4 2.4 0 011.4-1c.6 0 1.1.1 1.6.4.4.2.8.6 1 1.2.4 1 .6 2.5.4 4.5v.4a28.3 28.3 0 00.2 5.2c.5.2 1 0 1.6-.4a33.7 33.7 0 006.6-11.5v-.1c.3-1 .7-1.6 1-2 .4-.4.7-.6 1.1-.7a1.8 1.8 0 011.4.3c1 .8 1.5 2 1.5 3.9v1.5a83.2 83.2 0 00.3 5.7c.2.9.4 1.5.7 1.9.2.2.5.3.8.3 3-.5 7.4-3.5 13.5-9a87 87 0 017.3-28.4c1-2 2-3.6 3.3-4.8 1.2-1.2 2.4-2 3.4-2.3 1.1-.3 2-.4 2.7-.3.8 0 1.4.2 1.9.5 1.8 1 3 2.8 3.4 5.5.4 2.4.1 5.2-1 8.4a59 59 0 01-17 23.4c0 2.8.2 5 .5 6.5.2 1 .5 1.6 1 2v.1c.5.7 1.2.8 2.3.6a51.3 51.3 0 0020.8-12c1.5-1.6 2.8-1.9 4-1.4.6.3 1 1 1.3 2 .2 1.2 0 3-.4 5.5a36.6 36.6 0 00-.5 7.7v.2h.4a88.4 88.4 0 0018.7-14 14 14 0 015.5-6.3c2-1 3.8-1 5.2 0 1.4 1 2 2.7 1.8 4.8 0 .8-.5 1.3-1.2 1.6a2 2 0 01-1.9-.1c-.6-.4-1-1-.8-1.9v-.7l-.1-.4h-.4l-.6.3c-1.7.9-3.1 2.8-4.5 5.7-.8 1.8-1.2 3.2-1.3 4.4V59h.3c.3 0 .6 0 1-.2 1.2-.5 2.6-2.3 4.3-5.3a8.3 8.3 0 012-2.3c.5-.4 1-.6 1.4-.6.9-.1 1.5.3 1.9 1.4v.4c.6 1.7 1 3 1.7 4 .5.8 1 1.4 1.7 1.6 1 .3 2.2 0 3.7-.7 2.5-1.2 5.6-3.6 9.4-7.3a2 2 0 011.1-.6c1.2-.5 2.1-.3 2.8.4.7.6 1 1.5 1 2.8 0 1.8-.3 3.7-.9 5.8l.2-.2 2-1.5 3.7-3c3.5-2.8 6.3-4.6 8.5-5.3 1.6-.6 3-.6 4-.1l.9.7a4 4 0 011 2 9.8 9.8 0 01.2 2.3v3.5a10.1 10.1 0 000 2.4l.1.5.5.1c3.4-.4 8.4-3.6 15-9.5.7-2.3 1.7-4.4 2.9-6.4 2-3.5 4.4-5.5 7-6.2h.1c1.7-.4 3.2-.3 4.4.3 1.2.6 2.2 1.6 3 3.1a10 10 0 01.5 8.6c-.3.8-.8 1.2-1.5 1.3l.4.7.2.6c.4 1.8 1 3.1 1.6 4.1.5.8 1.1 1.4 1.8 1.5 1 .4 2.2.1 3.7-.6 2.5-1.1 5.6-3.6 9.3-7.3a2 2 0 011.4-.6c.5 0 1 .3 1.4.7.5.5.7 1 .7 1.4 0 .5-.2 1-.7 1.5-4.3 4.1-8 6.9-11 8.2a9 9 0 01-5.9.7c-2.1-.7-3.8-2.3-5-4.9a33.6 33.6 0 01-6.2 7.7c-1.5 1.2-2.8 1.8-4 1.8-1.8 0-3.2-.9-4.1-2.6a9.8 9.8 0 01-1.2-4.9v-2.4a73.4 73.4 0 01-4.8 3.5 22 22 0 01-8.6 3.7c-1.1 0-2-.1-2.8-.5a4 4 0 01-1.7-2.2c-.7-1.8-.8-3.7-.5-5.7 0-1.5.1-2.6 0-3.2v-.4h-.4l-1.2.5c-1.6.8-3.8 2.3-6.6 4.6l-9.3 7.3c-1.4.8-2.4.7-3 .3-.6-.5-1-1.5-.8-3 0-1.4.3-2.6.7-3.7l.9-3zm252 3.8l-1.5 1.4c-1.8 1.6-3.8 3-6 4.4-2.4 1.4-4.5 2-6.1 2-2.3 0-4-.7-5-2.3-1-1.4-1.6-3.4-2-6l-.2-2.2a72.3 72.3 0 01-5.6 4.2 22 22 0 01-8.6 3.7c-1.2 0-2.1-.1-2.9-.5a4 4 0 01-1.7-2.2c-.6-1.8-.8-3.7-.5-5.7a17 17 0 000-3.2v-.4h-.4l-1.2.5c-1.5.8-3.7 2.3-6.5 4.6l-9.4 7.3c-1.4.8-2.3.7-3 .3-.5-.5-.9-1.5-.8-3 .1-1.4.4-2.6.8-3.7l.8-3c-2.8 2.7-5.8 5.2-9 7.7-3.9 2.8-6.5 4.5-7.9 5-2.2 1.1-4 1-5.5 0-1.2-.9-1.8-2.4-1.9-4.6 0-1.9.2-4.3.8-7.3l.4-2h-.1c-.5 0-.9-.2-1.3-.6V53a2 2 0 01-.6-1.4c0-.5.2-1 .7-1.4 1.5-1.5 2.9-1.8 4-1.3.6.3 1 1 1.3 2 .2 1.2 0 3-.4 5.5a36.9 36.9 0 00-.5 8h.4a4 4 0 001-.4 89 89 0 0017.9-13.9c.3-.3.7-.5 1-.6 1.3-.5 2.2-.3 2.9.4.6.6 1 1.5.9 2.8 0 1.8-.3 3.7-.8 5.8l.2-.2 2-1.5 3.6-3c3.5-2.8 6.4-4.6 8.5-5.3 1.7-.6 3-.6 4-.1l1 .7.6 1 .4 1 .1 1.2.1 1v2.4l-.1 1.2a10.1 10.1 0 000 2.4c0 .2 0 .4.2.5l.5.1c3.4-.4 8.3-3.6 14.8-9.4l.2-2.8.7-5.5.5-4h-7.3a2 2 0 01-1.4-.6 2 2 0 01-.6-1.5c0-.6.2-1.1.6-1.5a2 2 0 011.4-.5 198.7 198.7 0 017.4.1h.4c.5-3 .7-4.8.7-5.3 0-.9.4-1.5 1.1-1.8.7-.2 1.3-.2 2 .2.6.3 1 1 1 1.7l-.6 5.2c2.6-.1 4.4-.4 5.5-.8a2 2 0 011.5-.3 2.2 2.2 0 011.3 2.6c-.1.5-.4.9-.9 1.2v.1c-1.3.6-3.9 1-8 1.2a87 87 0 00-1.3 18.9c.2 2.6.7 4.3 1.6 5 .5.5 1.2.6 2 .5 1-.2 2-.7 3.4-1.6a131.1 131.1 0 0013.3-11.1c2-1.6 4.2-1.7 6.6-.2.8.5 1 1.1 1 1.9 0 .4-.2.7-.3 1 .5 0 1.2.2 2.1.5 4.8 2 9.3 1.8 13.6-.4l-.4-.2c-1-.5-1.5-1.3-1.6-2.2-.1-2 1-3.8 3.8-5.3 2.8-1.6 4.9-1.7 6.4-.7 1.2.7 1.6 2.2 1 4.5h-.1l-.4 1c.9.2 1.6.5 2.1 1 1 .7 1.1 1.6.6 2.8-1.4 2.9-2.3 5-2.4 6.7 0 .9.1 1.5.5 2 .5.6 1.2 1 2.2 1 1.8.4 4.4.1 7.7-.7l7.6-1.8 9-2.6 10.6-3.1c2.5-.7 5.2-1.3 8.1-1.8a24 24 0 017.9-.5c.7.1 1.2.4 1.5 1a2 2 0 011.4-.6 3 3 0 011.3.1c.7.3 1 .7 1.3 1.4a2 2 0 01-.3 1.7c-.4.6-1 .8-1.6.8-.9 0-1.5-.2-2-.6a2 2 0 01-.3-.5c-.4.5-1 .8-1.8.7-1.7-.3-4 0-7 .5-2.8.5-5.5 1-8 1.8l-10 3c-12 3.5-20 5.3-23.7 5.3-3.4 0-5.7-.9-7-2.4-1-1.3-1.5-3-1.3-5.2.2-1.7.8-3.8 1.9-6.2h-1a20.2 20.2 0 01-20 3.7c-.2 5.7-2.3 8.9-6 9.8-1.2.3-2.3.2-3.4-.4-1-.5-1.9-1.3-2.5-2.3-.8-1.6-1.1-3.5-1-5.7zM317 46.6a23 23 0 00-5.5 3A12.5 12.5 0 00307 55c-1.3 3.3-.7 7.6 1.6 13a1416 1416 0 008.3-21.4zm126 6.8c-.3 0-.6-.2-.8-.3-.9-.5-1.6-.5-2.3 0-1 1-1.6 2.5-2 4.5a8 8 0 00.5 4.9c.1.3.3.5.5.6h.7c1.1-.2 1.9-1 2.3-2.2.6-1.5.8-3.6.7-6.3 0-.5.1-1 .3-1.2zm-207.3-2.7a2 2 0 01-.3-.4 2 2 0 01-.3-2c.7-1.5.7-3 0-4.6-.4-.8-.8-1.4-1.3-1.7-.5-.3-1.1-.4-1.8-.3-1.7.4-3.3 2-4.9 4.8a27.4 27.4 0 00-3.1 9c-.3 2-.4 3.6-.2 4.8.2 1 .6 1.8 1.2 2.2h.4l.8-.6c1.4-1 3.2-3.3 5.4-6.8l.4-.5c.9-1.4 1.7-2.3 2.3-3 .5-.5 1-.8 1.4-.9zm230.1-2.8c-.8.2-1.6.7-2.5 1.4l1.4.2c.5-.6.9-1.1 1-1.5h.1zm-337.6-3.3c0 1 .3 1.8 1 2.4.7.7 1.6 1 2.6 1s1.8-.3 2.5-1c.7-.6 1-1.5 1-2.4 0-1.4-.6-2.4-1.8-3a4 4 0 00-3.5 0c-1.2.6-1.8 1.6-1.8 3zm221.2 0c0 1 .3 1.8 1 2.4.8.7 1.6 1 2.6 1s1.8-.3 2.5-1c.7-.6 1-1.5 1-2.4 0-1.4-.6-2.4-1.8-3a4 4 0 00-3.5 0c-1.2.6-1.8 1.6-1.8 3zM117.6 25c.2-1.5.1-2.8-.2-4.1-.3-1-.7-1.7-1.5-1.8-.3-.1-.6 0-1 .1l-1.3 1c-1.1 1-2.1 2.5-3 4.4a80.4 80.4 0 00-6.2 22.3A49.5 49.5 0 00117 28.4c.3-1.2.6-2.3.7-3.4z"/>
  <path fill="#f2f0e9" fill-rule="nonzero" d="M184.9 88.1v-.4-.2h1.5l.7.1.2.6c0 .3 0 .5-.2.6l-.6.2v4.9c0 1-.4 1.7-1 2.2-.5.5-1.4.7-2.6.7-.8 0-1.3 0-1.7-.2-.4-.2-.6-.4-.6-.7 0-.3.1-.4.3-.6l.5-.2h.7l1 .1c.6 0 1 0 1.3-.3.3-.3.4-.8.4-1.4v-.3a4.1 4.1 0 01-2 .5c-1 0-1.7-.3-2.3-.9a3 3 0 01-1-2.2c0-1 .4-1.8 1-2.4.6-.6 1.4-1 2.4-1 .4 0 .8.2 1.1.3.4.1.6.3.9.6zm26.8-2.3l.3-.3.3-.1c.3 0 .4 0 .5.2l.2.6V88c0 .3 0 .6-.2.7l-.5.1h-.5a1 1 0 01-.3-.6c0-.5-.3-.8-.6-1a2 2 0 00-1-.3 2 2 0 00-1.7.8c-.4.4-.6 1.2-.6 2 0 1 .2 1.7.6 2.2.4.5 1 .8 1.6.8.5 0 1-.2 1.7-.5.6-.4 1-.5 1.1-.5.2 0 .3 0 .5.2l.2.6c0 .4-.4.8-1.1 1.2-.8.3-1.6.5-2.5.5a4 4 0 01-3-1.2 4.5 4.5 0 01-1.2-3.2c0-1.3.4-2.3 1.2-3.2.8-.8 1.8-1.2 3-1.2h1l1 .4zm-82.2 8l-.4.3a1 1 0 01-.4 0h-.4l-.2-.7v-1c0-.2 0-.5.2-.6l.5-.2c.3 0 .5.1.7.4l.3.3.8.5 1 .2.8-.2c.2-.2.3-.3.3-.6s-.5-.6-1.6-.7l-.6-.1c-.8-.1-1.4-.4-1.8-.7-.4-.3-.6-.8-.6-1.3 0-.7.2-1.2.7-1.6.5-.3 1.2-.5 2-.5a6.3 6.3 0 012 .3l.3-.3h.4l.4.1.2.6v.8c0 .2 0 .4-.2.5l-.4.2-1-.5c-.5-.4-1-.5-1.4-.5l-.9.1c-.2.2-.3.3-.3.5 0 .4.5.6 1.3.7h.6a5 5 0 012.2.8c.4.3.6.7.6 1.3a2 2 0 01-.8 1.7c-.5.4-1.3.6-2.2.6a7.7 7.7 0 01-2.1-.3zm27.9-6.5a4 4 0 012.8 1c.7.6 1 1.4 1 2.4s-.3 1.9-1 2.5a4 4 0 01-2.8 1 4 4 0 01-2.8-1c-.7-.6-1-1.5-1-2.5s.3-1.8 1-2.4a4 4 0 012.8-1zm17.3 0a4 4 0 012.8 1c.7.6 1 1.4 1 2.4s-.3 1.9-1 2.5a4 4 0 01-2.8 1 4 4 0 01-2.7-1c-.8-.6-1.1-1.5-1.1-2.5s.3-1.8 1-2.4a4 4 0 012.8-1zm89.7 5.1h.2l.5.2c.2.2.2.4.2.6 0 .3 0 .5-.2.6-.1.1-.3.2-.7.2h-.6c-.3 0-.4 0-.5-.2-.2 0-.3-.2-.3-.4a4.5 4.5 0 01-2.6.8c-.8 0-1.4-.2-1.8-.6a2 2 0 01-.7-1.6c0-.7.3-1.2.9-1.6.6-.4 1.3-.6 2.4-.6a7.8 7.8 0 011.5.2v-.2c0-.4 0-.7-.3-1-.2-.2-.5-.3-.9-.3a3 3 0 00-1.2.4l-1 .3c-.3 0-.4 0-.6-.2a.7.7 0 01-.2-.5c0-.4.3-.7.9-.9.5-.2 1.3-.3 2.2-.3 1 0 1.7.2 2.2.6.4.3.6 1 .6 2v2.5zm-69.4 0l.7.2.2.6-.2.6-.7.2h-.7c-.2 0-.4 0-.5-.2l-.3-.4a4.8 4.8 0 01-2.6.8c-.7 0-1.3-.2-1.8-.6a2 2 0 01-.6-1.6c0-.7.3-1.2.8-1.6.6-.4 1.4-.6 2.4-.6a7.6 7.6 0 011.6.2v-.2c0-.4-.1-.7-.3-1-.2-.2-.5-.3-1-.3a3 3 0 00-1.1.4l-1.1.3c-.2 0-.4 0-.5-.2a.7.7 0 01-.2-.5c0-.4.2-.7.8-.9.6-.2 1.3-.3 2.3-.3 1 0 1.7.2 2.1.6.5.3.7 1 .7 2v2.5zm60-4.6l.2-.4.5-.1c.3 0 .4 0 .5.2.2.2.2.4.2.8v1.2c0 .3 0 .5-.2.6l-.5.2-.5-.1-.3-.5-.8-.7-1.1-.2c-.5 0-1 .2-1.3.5a2 2 0 00-.6 1.4c0 .6.2 1 .6 1.4.3.4.8.6 1.4.6.6 0 1.1-.2 1.7-.5l1-.5.4.2.2.6c0 .4-.3.8-1 1.1-.7.4-1.5.6-2.4.6a4 4 0 01-2.8-1c-.7-.6-1-1.5-1-2.5s.3-1.8 1-2.4c.7-.7 1.6-1 2.7-1a4.2 4.2 0 012 .5zm-104.2 0l.3-.4.4-.1c.3 0 .4 0 .6.2l.1.8v1.2c0 .3 0 .5-.2.6l-.5.2-.4-.1c-.2 0-.3-.2-.4-.5l-.8-.7-1-.2c-.6 0-1 .2-1.4.5a2 2 0 00-.6 1.4c0 .6.2 1 .6 1.4.3.4.8.6 1.4.6.6 0 1.1-.2 1.7-.5l1-.5.4.2c.2.2.2.3.2.6 0 .4-.3.8-1 1.1-.7.4-1.5.6-2.4.6a4 4 0 01-2.8-1c-.7-.6-1-1.5-1-2.5s.3-1.8 1-2.4c.7-.7 1.6-1 2.7-1a4.3 4.3 0 012 .5zm87.7 4.6c.3 0 .5 0 .7.2l.2.6-.2.6-.7.2h-1.8c-.3 0-.5 0-.6-.2-.2-.1-.3-.3-.3-.6s.1-.5.3-.6l.6-.2v-2c0-.6 0-1-.2-1.2-.2-.3-.4-.4-.8-.4s-.7.2-1 .4c-.2.3-.3.7-.3 1.2v2c.3 0 .5 0 .7.2l.2.6-.2.6-.7.2h-1.8c-.3 0-.5 0-.6-.2-.2-.1-.3-.3-.3-.6s.1-.5.3-.6l.5-.2h.1V89c-.3 0-.5 0-.7-.2l-.2-.6.2-.6.7-.1h1.5l.1.3v.5c.2-.3.5-.6.9-.8l1.1-.2c.8 0 1.3.2 1.7.7.4.4.6 1.1.6 2v2.4zm-19.5 0h1.5c.4 0 .6 0 .7.2.2.1.2.3.2.6s0 .5-.2.6l-.7.2h-4.8c-.3 0-.5 0-.6-.2-.2-.1-.2-.3-.2-.6s0-.5.2-.6l.6-.2h1.6v-6.1h-.8c-.3 0-.6 0-.7-.2l-.2-.6c0-.3 0-.5.2-.6l.7-.2h2l.4.1.1.2v7.4zM121.7 91v1.4h.7c.3 0 .5 0 .7.2l.2.6-.2.6-.7.2H120c-.3 0-.6 0-.7-.2l-.2-.6c0-.3 0-.4.2-.6l.5-.2h.2v-5.2h-.2l-.5-.2-.2-.6c0-.3 0-.5.2-.6l.7-.2h2.9c1.1 0 2 .2 2.6.7.6.4.9 1 .9 2 0 .8-.3 1.5-.9 2-.6.5-1.5.7-2.6.7h-1.2zm123.5 1.4h1.5c.3 0 .6 0 .7.2l.2.6c0 .3 0 .5-.2.6l-.7.2h-4.8c-.3 0-.5 0-.7-.2l-.2-.6c0-.3 0-.5.2-.6l.7-.2h1.5V89h-.8c-.3 0-.5 0-.6-.2-.2-.1-.2-.3-.2-.6s0-.5.2-.6l.6-.1h2.5V92.4zm-104.2 0h1.5c.3 0 .6 0 .7.2l.2.6c0 .3 0 .5-.2.6l-.7.2h-4.8c-.3 0-.5 0-.7-.2l-.2-.6.2-.6.7-.2h1.6V89h-.8c-.4 0-.6 0-.7-.2-.2-.1-.2-.3-.2-.6s0-.5.2-.6l.7-.1h2.4V92.4zm86.8 0h1.5c.4 0 .6 0 .7.2.2.1.2.3.2.6s0 .5-.2.6l-.7.2h-4.7c-.4 0-.6 0-.7-.2-.2-.1-.2-.3-.2-.6s0-.5.2-.6c0-.1.3-.2.7-.2h1.5V89h-.8c-.3 0-.6 0-.7-.2l-.2-.6c0-.3 0-.5.2-.6l.7-.1h2.4l.1.3v4.6zm-60.9 0h1.5c.4 0 .6 0 .7.2.2.1.2.3.2.6s0 .5-.2.6c-.1.1-.3.2-.7.2h-4.8c-.3 0-.5 0-.6-.2-.2-.1-.2-.3-.2-.6s0-.5.2-.6l.6-.2h1.6v-6.1h-.8c-.3 0-.6 0-.7-.2l-.2-.6c0-.3 0-.5.2-.6l.7-.2h2.1l.3.1.1.2v7.4zm26.4-1.3a8.2 8.2 0 00-1.2-.2c-.6 0-1 .1-1.3.3-.2.2-.4.4-.4.7 0 .3.1.5.3.6.2.2.5.2.8.2a3 3 0 001.8-.5V91zm69.4 0a8.2 8.2 0 00-1.2-.2c-.5 0-.9.1-1.2.3-.3.2-.4.4-.4.7 0 .3 0 .5.3.6.1.2.4.2.8.2a3 3 0 001.7-.5V91zm-105.3-2.3c-.6 0-1 .2-1.4.5a2 2 0 00-.5 1.4c0 .6.2 1 .5 1.4.4.4.8.6 1.4.6.5 0 1-.2 1.3-.6.4-.4.6-.8.6-1.4 0-.5-.2-1-.6-1.4-.3-.3-.8-.5-1.3-.5zm17.3 0c-.5 0-1 .2-1.3.5a2 2 0 00-.6 1.4c0 .6.2 1 .6 1.4.3.4.8.6 1.3.6.6 0 1-.2 1.4-.6.4-.4.5-.8.5-1.4 0-.5-.1-1-.5-1.4-.4-.3-.8-.5-1.4-.5zm8.4 0c-.4 0-.8.1-1.1.5-.3.3-.5.7-.5 1.3 0 .5.2.9.5 1.2.3.3.7.5 1.1.5.5 0 .9-.2 1.2-.5.3-.3.4-.7.4-1.2 0-.6-.1-1-.4-1.3-.3-.4-.7-.5-1.2-.5zm-61.4-1.6v2.2h1c.5 0 1-.1 1.2-.3.3-.2.5-.5.5-.8a1 1 0 00-.5-.8c-.3-.2-.7-.3-1.2-.3h-1zm103.5-.4l-.2-.5 3.3-2H228.7l.2.2.3.6V85.5l-.2.1-3.7 1.3zm-69.1 0l-.3-.5 3.4-2H159.6l.2.2.2.6V85.5l-.1.1-3.7 1.3zM140 84.3c.3 0 .5 0 .7.2l.1 1-.1.8-.7.2c-.4 0-.6 0-.8-.2l-.1-.6c0-.6 0-1 .2-1.2 0-.2.3-.2.7-.2zm104.2 0c.3 0 .5 0 .7.2l.1 1-.1.8-.8.2c-.3 0-.6 0-.7-.2l-.1-.6.1-1.2c.1-.2.4-.2.8-.2z"/>
  <path fill="#b3b397" fill-rule="nonzero" d="M183.7 87v-.5-.2h1.5l.7.1.2.6c0 .3 0 .5-.2.6l-.6.2v4.9c0 1-.4 1.7-1 2.2-.5.5-1.4.7-2.6.7-.8 0-1.4 0-1.7-.2-.4-.2-.6-.4-.6-.7 0-.3.1-.4.3-.6l.5-.2h.7l1 .1c.6 0 1 0 1.3-.3.3-.3.4-.8.4-1.4V92a4.1 4.1 0 01-2 .5c-1 0-1.7-.3-2.3-.9a3 3 0 01-1-2.2c0-1 .4-1.8 1-2.4.6-.6 1.4-1 2.4-1 .4 0 .8.1 1.1.3l.9.6zm26.8-2.4l.3-.3.3-.1.5.1.2.7v1.8c0 .3 0 .6-.2.7l-.5.1-.5-.1a1 1 0 01-.3-.5c-.1-.5-.3-.8-.6-1a2 2 0 00-1-.3 2 2 0 00-1.7.8c-.4.4-.6 1.2-.6 2 0 1 .2 1.7.6 2.2.4.5 1 .7 1.6.7.5 0 1-.1 1.7-.4l1-.5c.3 0 .4 0 .6.2l.1.6c0 .4-.3.8-1 1.1-.8.4-1.6.6-2.5.6a4 4 0 01-3-1.2 4.5 4.5 0 01-1.2-3.2c0-1.3.4-2.3 1.2-3.2.8-.8 1.8-1.2 3-1.2h1l1 .4zm-82.2 8l-.4.3a1 1 0 01-.4 0h-.5v-1.7-.6l.6-.2c.3 0 .5.1.7.4l.3.3c.2.2.4.4.8.5l1 .2.8-.2c.2-.2.3-.3.3-.6s-.5-.6-1.6-.8h-.6c-.8-.1-1.4-.4-1.8-.7-.4-.3-.6-.8-.6-1.3 0-.7.2-1.2.7-1.6.5-.3 1.2-.5 2-.5a6.3 6.3 0 012 .3l.3-.3h.4l.4.1.2.6v.8c0 .2 0 .4-.2.5l-.4.2-1-.5c-.5-.4-1-.5-1.4-.5l-.9.1c-.2.2-.3.3-.3.5 0 .4.5.6 1.3.7h.6a5 5 0 012.2.8c.4.3.6.7.6 1.3a2 2 0 01-.8 1.7c-.5.4-1.3.6-2.3.6a7.7 7.7 0 01-2-.3zm27.9-6.5a4 4 0 012.7 1c.8.6 1.1 1.4 1.1 2.4s-.3 1.9-1 2.5a4 4 0 01-2.8 1 4 4 0 01-2.8-1c-.7-.6-1-1.5-1-2.5s.3-1.8 1-2.4a4 4 0 012.8-1zm17.3 0a4 4 0 012.8 1c.7.6 1 1.4 1 2.4s-.3 1.9-1 2.5a4 4 0 01-2.8 1 4 4 0 01-2.7-1c-.8-.6-1.1-1.5-1.1-2.5s.3-1.8 1-2.4a4 4 0 012.8-1zm89.7 5.1h.1l.6.2c.2.2.2.4.2.6 0 .3 0 .5-.2.6-.1.1-.3.2-.7.2h-.6c-.3 0-.4 0-.6-.2l-.2-.4a4.5 4.5 0 01-2.6.8c-.8 0-1.4-.2-1.8-.6a2 2 0 01-.7-1.6c0-.7.3-1.2.9-1.6.6-.4 1.3-.6 2.3-.6a7.8 7.8 0 011.6.2v-.2c0-.4 0-.7-.3-1-.2-.2-.5-.3-.9-.3a3 3 0 00-1.2.4l-1 .3c-.3 0-.4 0-.6-.2a.7.7 0 01-.2-.5c0-.4.3-.7.9-.9.5-.2 1.3-.3 2.2-.3 1 0 1.7.2 2.2.5.4.4.6 1 .6 2v2.6zm-69.4 0l.7.2.2.6-.2.6-.7.2h-.7c-.2 0-.4 0-.5-.2l-.3-.4a4.8 4.8 0 01-2.6.8c-.7 0-1.3-.2-1.8-.6a2 2 0 01-.6-1.6c0-.7.3-1.2.8-1.6.6-.4 1.4-.6 2.4-.6a7.6 7.6 0 011.6.2v-.2c0-.4-.1-.7-.3-1-.3-.2-.6-.3-1-.3a3 3 0 00-1.1.4l-1.1.3c-.2 0-.4 0-.5-.2a.7.7 0 01-.3-.5c0-.4.3-.7.9-.9.5-.2 1.3-.3 2.3-.3 1 0 1.7.2 2.1.5.5.4.7 1 .7 2v2.6zm60-4.6l.2-.4.5-.1c.3 0 .4 0 .5.2l.2.8v1.2c0 .2 0 .5-.2.6l-.5.2-.5-.1-.3-.5-.8-.7-1.1-.2c-.5 0-1 .2-1.4.5a2 2 0 00-.5 1.4c0 .6.2 1 .6 1.4.3.4.8.6 1.4.6.6 0 1.1-.2 1.7-.5l1-.5.4.2.2.5c0 .5-.3.9-1 1.2-.7.4-1.5.6-2.4.6a4 4 0 01-2.8-1c-.7-.6-1-1.5-1-2.5s.3-1.8 1-2.4c.7-.7 1.6-1 2.7-1a4.2 4.2 0 012 .5zm-104.2 0l.2-.4.5-.1c.3 0 .4 0 .5.2.2.2.2.4.2.8v1.2c0 .2 0 .5-.2.6l-.5.2-.4-.1-.4-.5-.8-.7-1-.2c-.6 0-1 .2-1.4.5a2 2 0 00-.6 1.4c0 .6.2 1 .6 1.4.3.4.8.6 1.4.6.6 0 1.1-.2 1.7-.5l1-.5.4.2c.2.2.2.3.2.5 0 .5-.3.9-1 1.2-.7.4-1.5.6-2.4.6a4 4 0 01-2.8-1c-.7-.6-1-1.5-1-2.5s.3-1.8 1-2.4c.7-.7 1.6-1 2.7-1a4.3 4.3 0 012 .5zm87.7 4.6c.3 0 .5 0 .7.2l.1.6-.1.6-.7.2h-1.8c-.3 0-.5 0-.7-.2l-.2-.6.2-.6.6-.2h.1v-2c0-.6 0-1-.2-1.2-.2-.3-.4-.4-.8-.4s-.7.2-1 .4c-.2.3-.3.7-.3 1.2v2c.3 0 .5 0 .7.2l.2.6-.2.6-.7.2h-1.8c-.3 0-.5 0-.7-.2l-.2-.6.2-.6.6-.2h.1v-3.4c-.4 0-.5 0-.7-.2l-.2-.6.2-.6.7-.2h1.2l.3.1.1.3v.5c.2-.3.5-.6.9-.8l1.1-.2c.8 0 1.3.2 1.7.7.4.4.6 1.1.6 2v2.4zm-19.5 0h1.5c.4 0 .6 0 .7.2l.2.6c0 .3 0 .5-.2.6l-.7.2h-4.8c-.3 0-.5 0-.6-.2-.2-.1-.2-.3-.2-.6s0-.5.2-.6l.6-.2h1.5v-6.1h-.7c-.3 0-.6 0-.7-.2-.2-.1-.2-.3-.2-.6s0-.5.2-.6l.7-.2h2l.4.1.1.2v7.4zm-97.3-1.4v1.4h.7c.3 0 .5 0 .7.2l.2.6c0 .3-.1.5-.3.6l-.6.2h-2.4c-.4 0-.6 0-.7-.2l-.2-.6c0-.3 0-.4.2-.6l.5-.2h.2V86h-.2l-.5-.2-.2-.6c0-.3 0-.5.2-.6l.7-.2h2.9c1.1 0 2 .2 2.6.7.6.4.9 1 .9 2 0 .8-.3 1.5-.9 2-.6.4-1.5.7-2.6.7h-1.2zM244 91.2h1.5c.3 0 .5 0 .7.2l.2.6c0 .3 0 .5-.2.6l-.7.2h-4.8c-.3 0-.5 0-.7-.2l-.2-.6c0-.3 0-.5.2-.6l.7-.2h1.5v-3.4h-.8c-.3 0-.5 0-.6-.2-.2-.1-.2-.3-.2-.6s0-.5.2-.6l.6-.2h2.2l.3.1V91.2zm-104.2 0h1.5c.3 0 .6 0 .7.2l.2.6c0 .3 0 .5-.2.6l-.7.2h-4.8c-.3 0-.5 0-.7-.2l-.2-.6.2-.6.7-.2h1.6v-3.4h-.9c-.3 0-.5 0-.6-.2-.2-.1-.2-.3-.2-.6s0-.5.2-.6l.6-.2h2.2l.3.1V91.2zm86.8 0h1.5c.4 0 .6 0 .7.2.2.1.2.3.2.6s0 .5-.2.6l-.7.2h-4.7c-.4 0-.6 0-.7-.2-.2-.1-.2-.3-.2-.6s0-.5.2-.6c0-.1.3-.2.7-.2h1.5v-3.4h-.8c-.3 0-.6 0-.7-.2l-.2-.6c0-.3 0-.5.2-.6l.7-.2h2.1l.3.1.1.3v4.6zm-60.9 0h1.5c.4 0 .6 0 .7.2.2.1.2.3.2.6s0 .5-.2.6c-.1.1-.3.2-.7.2h-4.8c-.3 0-.5 0-.6-.2-.2-.1-.2-.3-.2-.6s0-.5.2-.6l.6-.2h1.6v-6.1h-.8c-.3 0-.6 0-.7-.2l-.2-.6c0-.3 0-.5.2-.6l.7-.2h2.1l.3.1.1.2v7.4zm26.4-1.3a8.2 8.2 0 00-1.2-.2c-.6 0-1 .1-1.3.3-.2.1-.4.4-.4.7 0 .3 0 .5.3.6.2.2.4.2.8.2a3 3 0 001.8-.5v-1.1zm69.4 0a8.2 8.2 0 00-1.2-.2c-.5 0-1 .1-1.2.3-.3.1-.4.4-.4.7 0 .3 0 .5.2.6.2.2.5.2.9.2a3 3 0 001.7-.5v-1.1zm-105.3-2.3c-.6 0-1 .2-1.4.5a2 2 0 00-.5 1.4c0 .6.2 1 .5 1.4.4.4.8.6 1.4.6.5 0 1-.2 1.3-.6.4-.4.6-.8.6-1.4 0-.6-.2-1-.6-1.4-.3-.3-.8-.5-1.3-.5zm17.3 0c-.5 0-1 .2-1.3.5a2 2 0 00-.6 1.4c0 .6.2 1 .6 1.4.3.4.8.6 1.3.6.6 0 1-.2 1.4-.6.3-.4.5-.8.5-1.4 0-.6-.2-1-.5-1.4-.4-.3-.8-.5-1.4-.5zm8.4 0c-.5 0-.8.1-1.1.5-.3.3-.5.7-.5 1.3 0 .5.2.9.5 1.2.3.3.6.5 1.1.5.5 0 .9-.2 1.2-.5.3-.3.4-.7.4-1.2 0-.6-.1-1-.4-1.3-.3-.4-.7-.5-1.2-.5zM120.5 86v2.2h1c.5 0 1-.1 1.2-.3.3-.2.5-.5.5-.8a1 1 0 00-.5-.9l-1.2-.2h-1zm103.5-.4l-.2-.5 3.3-2H227.5l.2.2.3.6V84.3l-.2.1-3.7 1.3zm-69.1 0l-.3-.5 3.4-2H158.4l.2.2.2.6V84.3l-.1.1-3.7 1.3zm-16.1-2.5c.3 0 .5 0 .7.2l.1.9-.1.9-.7.2c-.4 0-.7 0-.8-.2l-.1-.6c0-.6 0-1 .2-1.2 0-.2.3-.2.7-.2zM243 83c.3 0 .5 0 .6.2.2 0 .2.4.2.9l-.1.9-.8.2c-.3 0-.6 0-.7-.2l-.1-.6.1-1.2c.1-.2.4-.2.8-.2z"/>
  <g>
    <path fill="#f2f0e9" fill-rule="nonzero" d="M368.6 85.2l-4.1 8.9-.4.5c-.1.2-.2.2-.4.2s-.4 0-.6-.2a.7.7 0 01-.2-.5c0-.1 0-.4.2-.6l4.1-9 .4-.5.4-.2c.2 0 .4 0 .5.2.2.2.3.3.3.5v.3l-.2.4zm15.8 4c.5.1 1 .4 1.2.7.3.4.4.9.4 1.5 0 .8-.3 1.5-.9 2-.6.6-1.4.8-2.4.8-.9 0-1.5-.1-2-.4-.6-.3-.9-.6-.9-1 0-.2 0-.4.2-.5l.6-.3 1 .4 1.2.3c.4 0 .8-.1 1-.4.2-.2.4-.6.4-1 0-.5-.1-.8-.3-1-.2-.2-.6-.3-1.2-.4l-.6-.1-.1-.6c0-.4.2-.6.6-.6h.1c.5-.1.8-.2 1-.4l.2-.9c0-.3 0-.6-.3-.7-.1-.2-.4-.3-.7-.3-.4 0-.8 0-1.2.3l-.9.3-.4-.1a.7.7 0 01-.2-.5c0-.4.3-.7.8-1 .6-.3 1.3-.5 2.1-.5s1.5.3 2 .7c.4.4.7 1 .7 1.7 0 .4-.1.8-.4 1.1-.2.4-.5.6-1 .8zm-36-4.4c1 0 1.9.5 2.5 1.3.7.8 1 2 1 3.4 0 1.5-.3 2.6-1 3.5a3 3 0 01-2.5 1.2c-1.1 0-2-.4-2.6-1.2-.6-.9-1-2-1-3.5 0-1.4.4-2.6 1-3.4a3 3 0 012.6-1.3zm42.1 1.8v1.7a7.8 7.8 0 011.5-.3c.9 0 1.6.3 2 .9.6.5.9 1.2.9 2.2 0 1-.4 1.8-1 2.3-.6.5-1.6.8-2.8.8-.9 0-1.5 0-2-.3-.4-.2-.7-.5-.7-.8 0-.3.1-.4.3-.6.1-.2.3-.3.6-.3l.8.3 1.2.2c.5 0 1-.2 1.2-.5.3-.2.5-.6.5-1.1 0-.5-.2-1-.4-1.2-.3-.3-.7-.4-1.1-.4-.4 0-.7 0-1.1.3-.4.2-.7.2-.9.2-.2 0-.4 0-.5-.2-.2-.1-.2-.4-.2-.7v-3.5-.4l.4-.1h4.7l.6.1.2.7-.2.6-.6.1h-3.4zm8.7 0v1.7a7 7 0 011.5-.3c.9 0 1.6.3 2 .9.6.5.9 1.2.9 2.2 0 1-.4 1.8-1 2.3-.6.5-1.6.8-2.8.8-.9 0-1.5 0-2-.3-.4-.2-.7-.5-.7-.8 0-.3.1-.4.3-.6.1-.2.3-.3.5-.3l1 .3 1.1.2c.5 0 1-.2 1.2-.5.3-.2.5-.6.5-1.1 0-.5-.2-1-.4-1.2-.3-.3-.7-.4-1.2-.4-.3 0-.6 0-1 .3l-.9.2c-.3 0-.4 0-.6-.2l-.1-.7v-3.5-.4l.4-.1h4.7l.6.1.1.7-.1.6-.6.1h-3.4zm-83.3-.8l.3-.3.3-.1c.3 0 .4 0 .5.2l.2.6V88c0 .3 0 .6-.2.7l-.6.1h-.4l-.3-.6c-.1-.5-.3-.8-.6-1-.2-.2-.6-.3-1-.3a2 2 0 00-1.8.8c-.3.4-.5 1.2-.5 2 0 1 .2 1.7.6 2.2.3.5.9.8 1.6.8.5 0 1-.2 1.7-.5l1-.5c.3 0 .4 0 .6.2l.1.6c0 .4-.3.8-1 1.2-.8.3-1.6.5-2.5.5-1.3 0-2.3-.4-3-1.2a4.5 4.5 0 01-1.2-3.2c0-1.3.4-2.3 1.2-3.2.8-.8 1.7-1.2 3-1.2h1l1 .4zm39.8 3.2c.2-.3.5-.5.8-.6l1-.2c.8 0 1.4.3 2 .8.5.6.7 1.3.7 2.2 0 .9-.2 1.6-.8 2.2-.6.5-1.4.8-2.3.8-1 0-1.8-.4-2.4-1-.6-.8-.9-1.8-.9-3.1 0-1.6.5-2.9 1.4-3.8.9-1 2-1.5 3.5-1.5.5 0 .8 0 1 .2.3 0 .4.2.4.4 0 .4-.4.6-1 .7h-.7c-.7 0-1.3.4-1.7.8-.5.5-.8 1.2-1 2zm21.2-3.2l-2.2 8-.2.2-.3.1H373h-.1l-.1-.2v-.2l2.5-7h-3l-.2.5-.5.1-.4-.1-.1-.5v-.1l.1-1.1.1-.3.4-.1h5.3v.7zm-52.8 4.3l.4.4v.1l1.2 1.8h.2l.6.2.2.6c0 .3 0 .5-.2.6l-.7.2h-.9a.9.9 0 01-.7-.4l-1.8-2.7-.2-.2-.3-.1h-.6v1.8l.7.2.2.6-.2.6-.7.2h-1.8c-.4 0-.6 0-.7-.2-.2-.1-.2-.3-.2-.6s0-.4.2-.6l.5-.2h.2v-5.2h-.2l-.5-.2a.8.8 0 01-.2-.6c0-.3 0-.5.2-.6.1-.1.3-.2.7-.2h3.2c1 0 1.8.2 2.3.6.5.4.8 1 .8 1.7 0 .5-.2 1-.5 1.4-.3.4-.7.6-1.2.8zm84.1 2.3h2.5c0-.3 0-.5.2-.6l.6-.2.4.2.2.5v1.2c0 .2 0 .3-.2.4h-5.3a1 1 0 01-.7 0 .6.6 0 01-.2-.6l.1-.5.5-.6 2.8-2.7c.4-.3.6-.6.7-1l.3-.9c0-.4-.1-.7-.3-.9-.2-.2-.5-.3-1-.3l-.6.1a1 1 0 00-.5.3s0 .2-.2.3c-.2.4-.4.6-.7.6-.3 0-.4-.1-.5-.3-.2-.1-.2-.4-.2-.7V86l.5-.4a4 4 0 011.2-.6l1.3-.2a3 3 0 012.1.8c.6.4.8 1 .8 1.9 0 .5-.1 1-.4 1.6-.3.5-.7 1-1.2 1.4l-2.2 1.9zM330.1 91v1.4h.7c.3 0 .5 0 .6.2.2.1.2.3.2.6s0 .5-.2.6l-.6.2h-2.5c-.3 0-.5 0-.6-.2-.2-.1-.2-.3-.2-.6s0-.4.2-.6l.5-.2h.1v-5.2l-.6-.2c-.2-.2-.2-.4-.2-.6 0-.3 0-.5.2-.6l.6-.2h3c1.1 0 2 .2 2.6.7.6.4.9 1 .9 2 0 .8-.3 1.5-1 2-.5.5-1.4.7-2.5.7H330zm28.4.3c0-.5-.2-.8-.4-1.1-.3-.3-.6-.5-1-.5s-.7.2-1 .5c-.2.2-.4.6-.4 1 0 .5.2.9.4 1.2.3.3.6.4 1 .4s.7-.1 1-.4c.2-.3.4-.6.4-1zm-10.1-4.9c-.5 0-1 .3-1.2.9-.3.5-.4 1.2-.4 2.2 0 1 .1 1.7.4 2.3.3.5.7.8 1.2.8s.9-.3 1.2-.8a5 5 0 00.4-2.3c0-1-.1-1.7-.4-2.2-.3-.6-.7-.9-1.2-.9zm-18.3.8v2.2h1c.5 0 1-.1 1.2-.3.3-.2.4-.5.4-.8a1 1 0 00-.4-.8c-.3-.2-.7-.3-1.2-.3h-1zm-8.9 0v2h1c.5 0 1-.2 1.2-.3.2-.2.3-.4.3-.8 0-.3 0-.6-.3-.7-.2-.2-.5-.3-1-.3h-1.2z"/>
    <path fill="#b3b397" fill-rule="nonzero" d="M367.4 84l-4.2 8.9c0 .2-.2.4-.3.5l-.4.2c-.2 0-.4 0-.6-.2a.7.7 0 01-.2-.5c0-.1 0-.4.2-.6l4.1-9 .4-.5.4-.2c.2 0 .4 0 .5.2.2.2.3.3.3.5v.3l-.2.4zm15.8 4c.5.1 1 .4 1.2.7.3.4.4.9.4 1.5 0 .8-.3 1.5-.9 2-.6.6-1.4.8-2.4.8-.9 0-1.5-.1-2-.4-.6-.3-.9-.6-.9-1 0-.2 0-.4.2-.5l.6-.3 1 .4 1.2.3c.4 0 .8-.1 1-.4.2-.2.4-.6.4-1 0-.5-.1-.8-.3-1-.2-.2-.6-.3-1.2-.4l-.6-.1-.1-.6c0-.4.2-.6.6-.6.6-.1 1-.3 1-.4.2-.2.3-.5.3-.9 0-.3 0-.6-.3-.7-.1-.2-.4-.3-.7-.3-.4 0-.8 0-1.2.3l-.9.3-.4-.1a.7.7 0 01-.2-.5c0-.4.3-.7.8-1 .6-.3 1.3-.5 2-.5 1 0 1.6.2 2 .7.5.4.8 1 .8 1.7 0 .4-.1.8-.4 1.1-.2.3-.5.6-1 .8zm-36-4.4c1 0 1.9.5 2.5 1.3.7.8 1 2 1 3.4 0 1.5-.3 2.6-1 3.4a3 3 0 01-2.5 1.3c-1.1 0-2-.4-2.6-1.3-.6-.8-1-2-1-3.4s.4-2.6 1-3.4a3 3 0 012.6-1.3zm42 1.8v1.7a7.8 7.8 0 011.6-.3c.9 0 1.6.3 2 .9.6.5.9 1.2.9 2.2 0 1-.4 1.8-1 2.3-.6.5-1.6.8-2.8.8-.9 0-1.5 0-2-.3-.4-.2-.7-.5-.7-.8 0-.3.1-.5.3-.6.1-.2.3-.3.6-.3l.8.2c.5.2.9.2 1.2.2.5 0 1 0 1.2-.4.3-.2.5-.6.5-1.1 0-.5-.2-1-.4-1.2-.3-.3-.7-.4-1.2-.4-.3 0-.6 0-1 .3l-.9.2c-.2 0-.4 0-.5-.2-.2-.1-.2-.4-.2-.7v-3.5-.4l.4-.1h4.7l.6.1.2.7-.2.6-.6.1h-3.4zm8.8 0v1.7a7 7 0 011.5-.3c.9 0 1.5.3 2 .9.6.5.8 1.2.8 2.2 0 1-.3 1.8-1 2.3-.6.5-1.5.8-2.7.8-.9 0-1.5 0-2-.3-.4-.2-.7-.5-.7-.8 0-.3.1-.5.3-.6.1-.2.3-.3.5-.3l1 .2c.4.2.8.2 1 .2.6 0 1 0 1.3-.4.3-.2.5-.6.5-1.1 0-.5-.2-1-.4-1.2-.3-.3-.7-.4-1.2-.4-.3 0-.6 0-1 .3l-.9.2c-.3 0-.4 0-.6-.2l-.1-.7v-3.5-.4l.4-.1h4.6l.7.1.1.7-.1.6-.7.1H398zm-83.3-.8l.3-.3.3-.1.5.1.2.7v1.8c0 .3 0 .6-.2.7l-.6.1-.4-.1-.3-.5c-.1-.5-.3-.8-.6-1-.2-.2-.6-.3-1.1-.3a2 2 0 00-1.7.8c-.3.4-.5 1.2-.5 2 0 1 .2 1.7.6 2.2.3.5.9.7 1.6.7.5 0 1-.1 1.7-.4l1-.5c.3 0 .4 0 .5.2.2.1.2.3.2.6 0 .4-.3.8-1 1.1-.8.4-1.6.6-2.5.6-1.3 0-2.3-.4-3-1.2a4.5 4.5 0 01-1.2-3.2c0-1.3.4-2.3 1.2-3.2.8-.8 1.7-1.2 3-1.2h1c.2.2.6.3 1 .4zm39.8 3.2c.2-.3.5-.5.8-.6.3-.2.7-.2 1-.2.8 0 1.4.3 2 .8.5.6.7 1.3.7 2.2 0 .9-.2 1.6-.8 2.2-.6.5-1.4.8-2.3.8-1 0-1.8-.4-2.4-1-.6-.8-.9-1.8-.9-3.1 0-1.6.5-2.9 1.4-3.8.8-1 2-1.5 3.5-1.5.5 0 .8 0 1 .2.3 0 .4.2.4.4 0 .4-.4.6-1 .7h-.7c-.7 0-1.3.4-1.8.8-.4.5-.7 1.2-.9 2zm21.2-3.2l-2.3 8v.2H371.6h-.1l-.1-.1v-.2l2.5-7h-3l-.2.4-.5.2-.4-.1-.2-.5v-.1l.2-1.1.1-.3.4-.1h5.3v.7zM323 89l.3.4.1.1 1.2 1.8h.2c.2 0 .5 0 .6.2l.2.6c0 .3 0 .5-.2.6l-.7.2h-.9a.9.9 0 01-.7-.4l-1.8-2.7-.2-.3H320.1v1.8l.7.2.2.6c0 .3-.1.5-.3.6l-.6.2h-1.8c-.4 0-.6 0-.7-.2-.2-.1-.2-.3-.2-.6s0-.4.2-.6l.5-.2h.2V86h-.2l-.5-.2a.8.8 0 01-.2-.6c0-.3 0-.5.2-.6.1-.1.3-.2.7-.2h3.2c1 0 1.8.2 2.3.6.5.4.7 1 .7 1.7 0 .5-.1 1-.4 1.4-.3.4-.7.6-1.2.8zm84.1 2.3h2.5c0-.3 0-.5.2-.6l.5-.2c.3 0 .4 0 .5.2l.2.5v1.2l-.2.4h-5.3a1 1 0 01-.7-.1.6.6 0 01-.2-.5l.1-.5.5-.6 2.8-2.8c.4-.3.6-.6.7-.9l.3-.9c0-.4-.1-.7-.3-1l-1-.2h-.6a1 1 0 00-.5.4s0 .2-.2.3c-.2.4-.4.6-.7.6-.3 0-.4-.1-.5-.3-.2-.1-.2-.4-.2-.7v-.7l.5-.4a4 4 0 011.2-.6l1.3-.2a3 3 0 012.1.8c.6.4.8 1 .8 1.9 0 .5-.1 1-.4 1.5-.3.5-.7 1-1.3 1.5l-2.1 1.9zm-78.1-1.4v1.4h.7c.3 0 .5 0 .6.2.2.1.2.3.2.6s0 .5-.2.6l-.6.2H327c-.3 0-.5 0-.6-.2-.2-.1-.2-.3-.2-.6s0-.4.2-.6l.5-.2h.1V86l-.6-.2c-.2-.2-.2-.4-.2-.6 0-.3 0-.5.2-.6l.6-.2h3c1.1 0 2 .2 2.6.7.6.4.9 1 .9 2 0 .8-.3 1.5-1 2-.5.4-1.4.7-2.5.7h-1.2zm28.3.3c0-.5 0-.8-.3-1.1-.3-.3-.6-.5-1-.5s-.7.2-1 .5c-.2.2-.4.6-.4 1 0 .5.2.9.4 1.2.3.3.6.4 1 .4s.7-.1 1-.4c.2-.3.3-.6.3-1.1zm-10-4.9c-.5 0-1 .3-1.2.8-.3.6-.4 1.3-.4 2.3 0 1 .1 1.7.4 2.3.3.5.7.8 1.2.8s.9-.3 1.2-.8a5 5 0 00.4-2.3c0-1-.2-1.7-.4-2.3-.3-.5-.7-.8-1.2-.8zm-18.3.8v2.2h1c.5 0 1-.1 1.2-.3.3-.2.4-.5.4-.8a1 1 0 00-.4-.9l-1.2-.2h-1zm-9 0v2h1c.6 0 1-.2 1.3-.3.2-.2.3-.4.3-.8 0-.3 0-.6-.3-.7-.2-.2-.5-.3-1-.3H320z"/>
  </g>
  <path fill="#c29151" fill-opacity=".6" fill-rule="nonzero" d="M289.2 96c.1.2 0 .5-.2.5-1 .2-2 0-2.9-.7a5.5 5.5 0 01-1.8-2.2 8 8 0 01-.5-1.2c-.5.5-1.2.9-1.8 1.2-.8.3-1.8.6-2.7.4a2.4 2.4 0 01-1.5-1v-.5c0-.1 0-.2.2-.3h1.4c.4.2.8.2 1.2.2.7 0 1.3-.3 1.8-.6H280.6a4.7 4.7 0 01-3.3-2c-.1-.2-.3-.4-.3-.7 0-.2.1-.4.4-.6h.6c.4.1.8.4 1.2.7l1 .7a6 6 0 002.3.8h1v-.2l-.2-.4-1-.5a6.3 6.3 0 01-3.5-4v-.7c0-.3.1-.5.4-.6.2 0 .5 0 .7.2l.1.2.2.2 1 .6.7 1 .7 1a5.4 5.4 0 001.3 1h.5v-.3-.7-1.1a8.8 8.8 0 01.3-2.8c0-.2.1-.4.3-.5 0-.2.2-.3.4-.4.3 0 .5 0 .6.2.2.1.2.3.3.5V85a3.8 3.8 0 000 1.1v.5h.1l.4-.7.3-1.8c.1-.5.3-1 .6-1.4l.6-.5 1.3-1 .3-.3c0-.1.2-.2.4-.1l.3.1.1.4v.8a4.5 4.5 0 01-1.4 3l-.1.2.4-.3.9-.8.3-.5.3-.2h.4l.3.3V85a4 4 0 01-.8 1.3 4.8 4.8 0 01-2.2 1.5l-1.2.5c-.2.1-.5.3-.6.7v.1h1.9c.8-.3 1.5-.7 2.1-1.2l.5-.4c.2-.2.5-.2.8 0 .2 0 .3.3.3.6l-.2.7c-.4.8-1.1 1.4-2 1.7-.8.4-1.8.5-2.8.4h-1.4c-.2 0-.4 0-.5.2l.1.3.5.5.5.5 1.2.9c.8.5 1.8.9 2.7.8H292c.2.2.3.5.2.7-.1.2-.4.4-.6.4l-.7.2a7 7 0 01-.8.2c-.5 0-1 0-1.5-.2h-.2l.8.7z"/>
</svg>